<?xml version="1.0" encoding="utf-8"?>
<!-- Generator: Adobe Illustrator 27.1.1, SVG Export Plug-In . SVG Version: 6.00 Build 0)  -->
<svg version="1.1" id="Layer_1" xmlns="http://www.w3.org/2000/svg" xmlns:xlink="http://www.w3.org/1999/xlink" x="0px" y="0px"
	 viewBox="0 0 548 216" style="enable-background:new 0 0 548 216;" xml:space="preserve">
<style type="text/css">
	.st0{fill:#1E3B8A;}
</style>
<g>
	<path class="st0" d="M79.3,128.7c-3.3,0-6.1-0.2-8.2-0.5c-2.2-0.3-3.8-1.1-4.8-2.3s-1.6-3-1.6-5.5c0-2.5,0.5-4.4,1.5-5.6
		c1-1.2,2.6-2,4.7-2.3s5-0.5,8.5-0.5c2.8,0,5.2,0.1,7.1,0.2c1.9,0.1,3.6,0.4,5.1,0.7c0-2.1-0.2-3.8-0.4-5.1
		c-0.3-1.2-0.7-2.1-1.4-2.7s-1.7-1-3.1-1.1c-1.4-0.2-3.2-0.3-5.4-0.3c-2.6,0-4.6,0.1-6,0.2s-2.5,0.3-3.2,0.6s-1.1,0.7-1.2,1.3
		c-0.2,0.5-0.3,1.3-0.3,2.1h-4.6c0-1.7,0.2-3.1,0.7-4.2c0.5-1.1,1.3-1.9,2.4-2.4c1.1-0.5,2.7-0.9,4.7-1.1s4.5-0.3,7.5-0.3
		c3.3,0,5.9,0.2,7.9,0.6s3.5,1.2,4.5,2.3c1,1.1,1.7,2.6,2.1,4.6c0.4,1.9,0.5,4.5,0.5,7.5v13.4h-4.6v-1.9c-0.5,0.6-1.3,1-2.3,1.4
		c-1,0.4-2.2,0.6-3.9,0.8C83.8,128.6,81.8,128.7,79.3,128.7z M79.3,124.9c2.8,0,4.9,0,6.6-0.1s2.9-0.2,3.7-0.5
		c0.8-0.3,1.3-0.8,1.6-1.4c0.3-0.6,0.4-1.5,0.4-2.7v-4.3l-12.3-0.1c-2.2,0-3.9,0-5.3,0.1c-1.3,0.1-2.3,0.3-3,0.6
		c-0.7,0.3-1.2,0.8-1.4,1.4c-0.2,0.6-0.4,1.5-0.4,2.6c0,1,0.1,1.9,0.4,2.5c0.2,0.6,0.7,1.1,1.4,1.4c0.7,0.3,1.7,0.5,3,0.6
		C75.4,124.9,77.1,124.9,79.3,124.9z M89.4,95.8L74.2,86l2.8-4.2l13.9,11.6L89.4,95.8z"/>
	<path class="st0" d="M116,128.1V91h24.8c3.6,0,6.5,0.2,8.8,0.5s3.9,0.9,5,1.8c1.1,0.8,1.9,1.9,2.3,3.4c0.4,1.4,0.6,3.2,0.6,5.3v1
		c0,2-0.2,3.7-0.6,5.1c-0.4,1.4-1.2,2.5-2.4,3.4c-1.2,0.9-2.9,1.5-5.1,1.9c-2.2,0.4-5.1,0.6-8.8,0.6h-20v14.3H116z M152.8,102
		c0-1.5-0.1-2.8-0.4-3.7c-0.3-0.9-0.9-1.6-1.7-2.1c-0.9-0.5-2.2-0.8-3.9-0.9c-1.7-0.2-4-0.2-6.9-0.2h-19.3v14.8h19.3
		c2.9,0,5.2-0.1,6.9-0.3c1.7-0.2,3-0.5,3.9-1c0.9-0.5,1.4-1.2,1.7-2.1c0.3-0.9,0.4-2.1,0.4-3.5V102z"/>
	<path class="st0" d="M178,128.7c-3.3,0-6.1-0.2-8.2-0.5c-2.2-0.3-3.8-1.1-4.8-2.3c-1.1-1.2-1.6-3-1.6-5.5c0-2.5,0.5-4.4,1.5-5.6
		s2.6-2,4.7-2.3c2.1-0.4,5-0.5,8.5-0.5c2.8,0,5.2,0.1,7.1,0.2c1.9,0.1,3.6,0.4,5.1,0.7c0-2.1-0.2-3.8-0.4-5.1
		c-0.3-1.2-0.7-2.1-1.4-2.7s-1.7-1-3.1-1.1c-1.4-0.2-3.2-0.3-5.4-0.3c-2.6,0-4.6,0.1-6,0.2c-1.5,0.1-2.5,0.3-3.2,0.6
		s-1.1,0.7-1.2,1.3s-0.3,1.3-0.3,2.1h-4.6c0-1.7,0.2-3.1,0.7-4.2s1.3-1.9,2.4-2.4c1.1-0.5,2.7-0.9,4.7-1.1c2-0.2,4.5-0.3,7.5-0.3
		c3.3,0,5.9,0.2,7.9,0.6s3.5,1.2,4.5,2.3c1,1.1,1.7,2.6,2.1,4.6c0.4,1.9,0.5,4.5,0.5,7.5v13.4h-4.6v-1.9c-0.5,0.6-1.3,1-2.3,1.4
		c-1,0.4-2.2,0.6-3.9,0.8S180.5,128.7,178,128.7z M178,124.9c2.8,0,4.9,0,6.6-0.1s2.9-0.2,3.7-0.5s1.3-0.8,1.6-1.4
		c0.3-0.6,0.4-1.5,0.4-2.7v-4.3l-12.3-0.1c-2.2,0-3.9,0-5.3,0.1c-1.3,0.1-2.3,0.3-3,0.6c-0.7,0.3-1.2,0.8-1.4,1.4s-0.4,1.5-0.4,2.6
		c0,1,0.1,1.9,0.4,2.5c0.2,0.6,0.7,1.1,1.4,1.4c0.7,0.3,1.7,0.5,3,0.6C174.1,124.9,175.9,124.9,178,124.9z"/>
	<path class="st0" d="M234.8,95.7V91h4.6v4.6H234.8z M234.8,128.1V99.9h4.6v28.2H234.8z"/>
	<path class="st0" d="M230.1,103.8c-0.3-1.1-1-1.9-2-2.5c-1-0.6-2.5-1-4.5-1.2l-3.6-0.2c-0.3,0-0.8,0-1.3,0c-1.6,0-2.9,0.1-4.4,0.2
		c-1.4,0.1-2.6,0.4-3.4,0.7c-0.8,0.3-1.5,0.8-2.1,1.3c-0.5,0.5-1,1.2-1.6,2.1v-3.8h-4.6v27.8h4.6v-17c0-1.5,0.1-2.7,0.2-3.6
		c0.2-0.9,0.6-1.7,1.4-2.2c0.8-0.5,2-0.9,3.8-1.1s4.2-0.3,7.4-0.3l1.7,0c1.4,0.1,2.5,0.3,3.1,0.5c0.6,0.3,1,0.7,1.2,1.3
		s0.2,1.4,0.2,2.5h4.4C230.6,106.3,230.4,104.9,230.1,103.8z"/>
	<path class="st0" d="M103.9,194.3v-16.1h10.8c1.6,0,2.8,0.1,3.8,0.2c1,0.2,1.7,0.4,2.2,0.8c0.5,0.4,0.8,0.8,1,1.5s0.3,1.4,0.3,2.3
		v0.4c0,0.9-0.1,1.6-0.3,2.2c-0.2,0.6-0.5,1.1-1,1.5c-0.5,0.4-1.2,0.6-2.2,0.8s-2.2,0.3-3.8,0.3h-8.7v6.2H103.9z M120,182.9
		c0-0.7-0.1-1.2-0.2-1.6s-0.4-0.7-0.8-0.9s-0.9-0.3-1.7-0.4c-0.7-0.1-1.7-0.1-3-0.1h-8.4v6.4h8.4c1.3,0,2.3,0,3-0.1
		c0.7-0.1,1.3-0.2,1.7-0.4c0.4-0.2,0.6-0.5,0.8-0.9s0.2-0.9,0.2-1.5V182.9z"/>
	<path class="st0" d="M129.1,178.2h10.8c1.6,0,2.8,0.1,3.8,0.2c1,0.1,1.7,0.4,2.2,0.7c0.5,0.3,0.8,0.8,1,1.4
		c0.2,0.6,0.3,1.3,0.3,2.3v0.4c0,0.8-0.1,1.6-0.3,2.2c-0.2,0.6-0.6,1.1-1.1,1.5c-0.6,0.4-1.4,0.6-2.5,0.8l3.5,6.7h-2l-3.4-6.5
		c-0.1,0-0.3,0-0.4,0s-0.3,0-0.5,0h-9.2v6.5h-2V178.2z M131.1,186.1h8.9c1.2,0,2.1,0,2.8-0.1c0.7-0.1,1.2-0.2,1.5-0.4
		c0.3-0.2,0.5-0.5,0.6-0.9c0.1-0.4,0.1-0.9,0.1-1.4v-0.4c0-0.7-0.1-1.2-0.2-1.6s-0.4-0.7-0.8-0.9c-0.4-0.2-0.9-0.3-1.7-0.4
		c-0.7-0.1-1.7-0.1-3-0.1h-8.4V186.1z"/>
	<path class="st0" d="M155.3,194.3v-16.1h2v16.1H155.3z"/>
	<path class="st0" d="M173,194.3l-8.7-16.1h2.3l7.7,14.7l7.7-14.7h2.3l-8.7,16.1H173z"/>
	<path class="st0" d="M190.1,194.3l9.4-16.1h2.7l9.4,16.1h-2.4l-2-3.7h-12.8l-2,3.7H190.1z M195.5,189h10.7l-5.4-9.4L195.5,189z"/>
	<path class="st0" d="M225.6,194.3v-14.4h-8.1v-1.7h18.1v1.7h-8.1v14.4H225.6z"/>
	<path class="st0" d="M243,194.3v-16.1h15.8v1.7H245v5.4h13.2v1.7H245v5.7h14.1v1.7H243z"/>
	<path class="st0" d="M289.2,186.5v-0.4c0-1.4,0.1-2.6,0.2-3.6c0.1-1,0.4-1.8,0.7-2.4s0.8-1.1,1.4-1.4c0.6-0.3,1.3-0.5,2.2-0.7
		c0.9-0.1,2-0.2,3.2-0.2h4.2c1.4,0,2.7,0.1,3.6,0.2c1,0.1,1.8,0.4,2.4,0.8c0.6,0.4,1,1,1.3,1.8c0.3,0.8,0.4,1.8,0.4,3.1h-2
		c0-1-0.1-1.8-0.3-2.4c-0.2-0.6-0.5-1-0.9-1.2c-0.4-0.3-1-0.4-1.8-0.5s-1.7-0.1-2.8-0.1H297c-1,0-1.8,0-2.5,0.1
		c-0.7,0.1-1.2,0.2-1.7,0.4c-0.4,0.2-0.8,0.6-1,1c-0.2,0.5-0.4,1.1-0.5,1.9s-0.1,1.8-0.1,3v0.4c0,1.2,0,2.2,0.1,3
		c0.1,0.8,0.2,1.4,0.5,1.9c0.2,0.5,0.6,0.8,1,1c0.4,0.2,1,0.4,1.7,0.5c0.7,0.1,1.5,0.1,2.5,0.1h4.2c1.1,0,2.1,0,2.8-0.1
		c0.7,0,1.3-0.2,1.8-0.4c0.4-0.2,0.7-0.6,0.9-1.2c0.2-0.6,0.3-1.3,0.3-2.3h2c0,1.3-0.1,2.3-0.4,3.1s-0.7,1.3-1.3,1.7
		c-0.6,0.4-1.4,0.6-2.4,0.8s-2.2,0.2-3.6,0.2H297c-1.6,0-2.9-0.1-3.9-0.3s-1.8-0.6-2.4-1.2c-0.6-0.6-1-1.4-1.2-2.5
		C289.4,189.6,289.2,188.2,289.2,186.5z"/>
	<path class="st0" d="M316.8,178.2h10.8c1.6,0,2.8,0.1,3.8,0.2c1,0.1,1.7,0.4,2.2,0.7c0.5,0.3,0.8,0.8,1,1.4
		c0.2,0.6,0.3,1.3,0.3,2.3v0.4c0,0.8-0.1,1.6-0.3,2.2c-0.2,0.6-0.6,1.1-1.1,1.5c-0.6,0.4-1.4,0.6-2.5,0.8l3.5,6.7h-2l-3.4-6.5
		c-0.1,0-0.3,0-0.4,0s-0.3,0-0.5,0h-9.2v6.5h-2V178.2z M318.8,186.1h8.9c1.2,0,2.1,0,2.8-0.1s1.2-0.2,1.5-0.4
		c0.3-0.2,0.5-0.5,0.6-0.9c0.1-0.4,0.1-0.9,0.1-1.4v-0.4c0-0.7-0.1-1.2-0.2-1.6s-0.4-0.7-0.8-0.9c-0.4-0.2-0.9-0.3-1.7-0.4
		c-0.7-0.1-1.7-0.1-3-0.1h-8.4V186.1z"/>
	<path class="st0" d="M351.2,194.7c-1.6,0-2.9-0.1-3.9-0.3c-1-0.2-1.8-0.6-2.4-1.2s-1-1.4-1.2-2.5s-0.3-2.5-0.3-4.2v-8.3h2v8.3
		c0,1.2,0,2.2,0.1,3c0.1,0.8,0.2,1.4,0.5,1.9c0.2,0.5,0.6,0.8,1,1c0.4,0.2,1,0.4,1.7,0.5c0.7,0.1,1.5,0.1,2.5,0.1h3.8
		c1,0,1.8,0,2.5-0.1c0.7-0.1,1.2-0.2,1.7-0.5s0.8-0.6,1-1c0.2-0.5,0.4-1.1,0.5-1.9c0.1-0.8,0.1-1.8,0.1-3v-8.3h2v8.3
		c0,1.7-0.1,3.1-0.3,4.2s-0.6,1.9-1.2,2.5s-1.4,1-2.4,1.2c-1,0.2-2.3,0.3-3.9,0.3H351.2z"/>
	<path class="st0" d="M369.5,194.3v-16.1h2v16.1H369.5z"/>
	<path class="st0" d="M396,189.7c0-0.6,0-1.1-0.1-1.5s-0.3-0.6-0.7-0.8c-0.3-0.2-0.9-0.3-1.6-0.3c-0.7-0.1-1.7-0.1-3-0.1l-5.8-0.1
		c-1.4,0-2.6-0.1-3.5-0.3c-0.9-0.2-1.5-0.4-2-0.7c-0.4-0.3-0.7-0.8-0.9-1.3s-0.2-1.3-0.2-2.1c0-0.9,0.1-1.7,0.3-2.3
		c0.2-0.6,0.6-1.1,1.1-1.4s1.3-0.6,2.3-0.7c1-0.1,2.3-0.2,3.9-0.2h4.5c1.4,0,2.6,0,3.6,0.1c1,0.1,1.7,0.3,2.3,0.6
		c0.6,0.3,1,0.8,1.2,1.5c0.2,0.7,0.4,1.6,0.4,2.9h-2c0-0.9-0.1-1.6-0.3-2.1s-0.5-0.8-0.9-1c-0.4-0.2-1-0.3-1.7-0.3
		c-0.7,0-1.6,0-2.6,0h-4.4c-1.3,0-2.3,0-3,0.1c-0.8,0-1.3,0.2-1.7,0.3c-0.4,0.2-0.6,0.5-0.8,0.8c-0.1,0.4-0.2,0.9-0.2,1.6
		c0,0.6,0,1,0.1,1.4s0.3,0.6,0.6,0.8c0.3,0.2,0.8,0.3,1.5,0.4c0.7,0.1,1.6,0.1,2.7,0.1l6.3,0.1c1.5,0,2.6,0.1,3.5,0.3s1.5,0.4,2,0.7
		s0.7,0.8,0.9,1.4c0.1,0.6,0.2,1.3,0.2,2.2c0,0.9-0.1,1.7-0.3,2.4c-0.2,0.6-0.5,1.2-1,1.5c-0.5,0.4-1.2,0.7-2.2,0.8
		s-2.2,0.3-3.8,0.3h-4.9c-1.4,0-2.6-0.1-3.6-0.2c-1-0.1-1.7-0.4-2.3-0.8c-0.6-0.4-1-0.9-1.2-1.7s-0.4-1.8-0.4-3h2
		c0,1,0.1,1.7,0.2,2.3s0.4,0.9,0.8,1.2c0.4,0.2,1,0.4,1.7,0.4c0.7,0,1.6,0.1,2.8,0.1h4.8c1.3,0,2.2,0,3-0.1s1.3-0.2,1.6-0.5
		c0.4-0.2,0.6-0.6,0.7-1S396,190.4,396,189.7z"/>
	<path class="st0" d="M403.6,194.3v-16.1h15.8v1.7h-13.8v5.4h13.2v1.7h-13.2v5.7h14.1v1.7H403.6z"/>
	<path class="st0" d="M443.9,189.7c0-0.6,0-1.1-0.1-1.5s-0.3-0.6-0.7-0.8c-0.3-0.2-0.9-0.3-1.6-0.3c-0.7-0.1-1.7-0.1-3-0.1l-5.8-0.1
		c-1.4,0-2.6-0.1-3.5-0.3c-0.9-0.2-1.5-0.4-2-0.7c-0.4-0.3-0.7-0.8-0.9-1.3s-0.2-1.3-0.2-2.1c0-0.9,0.1-1.7,0.3-2.3
		c0.2-0.6,0.6-1.1,1.1-1.4s1.3-0.6,2.3-0.7c1-0.1,2.3-0.2,3.9-0.2h4.5c1.4,0,2.6,0,3.6,0.1c1,0.1,1.7,0.3,2.3,0.6
		c0.6,0.3,1,0.8,1.2,1.5c0.2,0.7,0.4,1.6,0.4,2.9h-2c0-0.9-0.1-1.6-0.3-2.1s-0.5-0.8-0.9-1c-0.4-0.2-1-0.3-1.7-0.3
		c-0.7,0-1.6,0-2.6,0h-4.4c-1.3,0-2.3,0-3,0.1c-0.8,0-1.3,0.2-1.7,0.3c-0.4,0.2-0.6,0.5-0.8,0.8c-0.1,0.4-0.2,0.9-0.2,1.6
		c0,0.6,0,1,0.1,1.4s0.3,0.6,0.6,0.8c0.3,0.2,0.8,0.3,1.5,0.4c0.7,0.1,1.6,0.1,2.7,0.1l6.3,0.1c1.5,0,2.6,0.1,3.5,0.3s1.5,0.4,2,0.7
		s0.7,0.8,0.9,1.4c0.1,0.6,0.2,1.3,0.2,2.2c0,0.9-0.1,1.7-0.3,2.4c-0.2,0.6-0.5,1.2-1,1.5c-0.5,0.4-1.2,0.7-2.2,0.8
		s-2.2,0.3-3.8,0.3h-4.9c-1.4,0-2.6-0.1-3.6-0.2c-1-0.1-1.7-0.4-2.3-0.8c-0.6-0.4-1-0.9-1.2-1.7s-0.4-1.8-0.4-3h2
		c0,1,0.1,1.7,0.2,2.3s0.4,0.9,0.8,1.2c0.4,0.2,1,0.4,1.7,0.4c0.7,0,1.6,0.1,2.8,0.1h4.8c1.3,0,2.2,0,3-0.1s1.3-0.2,1.6-0.5
		c0.4-0.2,0.6-0.6,0.7-1S443.9,190.4,443.9,189.7z"/>
	<path class="st0" d="M82.8,59.7c-3.7,0-6.7-0.2-9-0.7s-4.2-1.4-5.5-2.8c-1.3-1.3-2.3-3.3-2.8-5.8c-0.5-2.5-0.8-5.8-0.8-9.8V21.3
		h4.7v19.3c0,2.8,0.1,5.1,0.3,6.9c0.2,1.8,0.6,3.3,1.1,4.4c0.5,1.1,1.3,1.9,2.3,2.4c1,0.5,2.3,0.9,3.9,1.1s3.6,0.2,5.9,0.2h8.8
		c2.3,0,4.3-0.1,5.9-0.2s2.9-0.5,3.9-1.1c1-0.5,1.8-1.4,2.3-2.4s0.9-2.6,1.1-4.4c0.2-1.8,0.3-4.1,0.3-6.9V21.3h4.7v19.3
		c0,4-0.3,7.3-0.8,9.8c-0.5,2.5-1.5,4.4-2.8,5.8c-1.3,1.3-3.2,2.3-5.5,2.8s-5.4,0.7-9,0.7H82.8z"/>
	<path class="st0" d="M116.4,58.9V30.7h4.7v3.7c0.7-0.9,1.6-1.7,2.6-2.4c1-0.6,2.4-1.1,4.2-1.4c1.7-0.3,4-0.5,6.8-0.5
		c3.7,0,6.6,0.4,8.7,1.1c2.1,0.7,3.6,2,4.5,3.8s1.3,4.4,1.3,7.8v16h-4.7v-16c0-1.9-0.2-3.5-0.5-4.6c-0.3-1.2-0.9-2.1-1.7-2.7
		c-0.8-0.6-1.9-1-3.3-1.2c-1.4-0.2-3.1-0.3-5.3-0.3c-3.3,0-5.8,0.3-7.7,0.8c-1.9,0.5-3.2,1.4-3.9,2.5s-1.1,2.6-1.1,4.5v17H116.4z"/>
	<path class="st0" d="M167.2,58.9V21.3h29.9c2.8,0,5.2,0.3,7,0.8c1.8,0.5,3.2,1.5,4,2.8c0.9,1.3,1.3,3.2,1.3,5.7
		c0,2.2-0.5,4-1.5,5.5c-1,1.5-2.6,2.2-4.7,2.4c2.8,0.3,4.8,1.3,6,3s1.8,3.8,1.8,6.4c0,2.2-0.3,4.1-0.8,5.5c-0.5,1.4-1.4,2.5-2.6,3.3
		c-1.2,0.8-2.8,1.3-4.9,1.7c-2.1,0.3-4.6,0.5-7.7,0.5H167.2z M171.9,37h21.9c2.5,0,4.6-0.1,6.2-0.3s2.8-0.7,3.6-1.6
		c0.8-0.9,1.2-2.4,1.2-4.5c0-1.6-0.2-2.9-0.7-3.6c-0.5-0.8-1.3-1.3-2.4-1.5c-1.1-0.2-2.6-0.3-4.6-0.3h-25.2V37z M171.9,55H195
		c2.2,0,4.1-0.1,5.5-0.2c1.5-0.1,2.6-0.4,3.4-0.8c0.8-0.4,1.4-1.1,1.8-2.1s0.5-2.3,0.5-3.9c0-1.7-0.3-3.1-1-4s-1.5-1.7-2.7-2.1
		c-1.1-0.4-2.5-0.7-4-0.8c-1.5-0.1-3.1-0.1-4.9-0.1h-21.9V55z"/>
	<path class="st0" d="M233.1,59.4c-3.4,0-6.2-0.2-8.3-0.5c-2.2-0.4-3.8-1.1-4.9-2.3c-1.1-1.2-1.6-3-1.6-5.5c0-2.6,0.5-4.4,1.5-5.6
		s2.6-2,4.8-2.3c2.2-0.4,5-0.5,8.6-0.5c2.9,0,5.3,0.1,7.2,0.2s3.7,0.4,5.2,0.7c0-2.2-0.2-3.9-0.4-5.1c-0.3-1.2-0.7-2.2-1.5-2.8
		c-0.7-0.6-1.8-1-3.1-1.2c-1.4-0.2-3.2-0.3-5.5-0.3c-2.6,0-4.6,0.1-6.1,0.2c-1.5,0.1-2.5,0.3-3.2,0.6s-1.1,0.7-1.3,1.3
		c-0.2,0.6-0.3,1.3-0.3,2.2h-4.7c0-1.8,0.2-3.2,0.7-4.3c0.5-1.1,1.3-1.9,2.5-2.4c1.2-0.6,2.7-0.9,4.8-1.1s4.6-0.3,7.6-0.3
		c3.3,0,5.9,0.2,8,0.6c2,0.4,3.5,1.2,4.6,2.3s1.8,2.6,2.1,4.6c0.4,2,0.6,4.5,0.6,7.6v13.5h-4.7V57c-0.6,0.6-1.3,1.1-2.3,1.4
		c-1,0.4-2.3,0.6-3.9,0.8S235.6,59.4,233.1,59.4z M233.1,55.6c2.8,0,5,0,6.7-0.1c1.7-0.1,2.9-0.2,3.7-0.5c0.8-0.3,1.4-0.8,1.6-1.4
		c0.3-0.7,0.4-1.6,0.4-2.7v-4.3l-12.4-0.1c-2.2,0-4,0-5.3,0.1s-2.4,0.3-3.1,0.6c-0.7,0.3-1.2,0.8-1.4,1.4c-0.2,0.6-0.4,1.5-0.4,2.6
		c0,1.1,0.1,1.9,0.4,2.5c0.2,0.6,0.7,1.1,1.4,1.4s1.7,0.5,3.1,0.6S230.9,55.6,233.1,55.6z"/>
	<path class="st0" d="M321.8,50.5c0,2.1-0.3,3.8-0.9,5s-1.6,2.1-2.9,2.6S315,59,313,59.2s-4.4,0.2-7.1,0.2c-3.1,0-5.8-0.2-8-0.5
		c-2.2-0.3-4-1-5.3-2s-2.3-2.5-2.9-4.4c-0.6-2-0.9-4.6-0.9-7.9c0-3.2,0.3-5.8,0.9-7.7s1.6-3.4,2.9-4.4s3.1-1.6,5.3-2s4.8-0.5,8-0.5
		c3.6,0,6.6,0.3,8.9,0.8s4.1,1.5,5.3,2.9s1.7,3.5,1.7,6.2v6h-28.3c0,2.1,0.2,3.8,0.4,5c0.3,1.3,0.8,2.2,1.7,2.8s2.1,1.1,3.7,1.3
		c1.7,0.2,3.9,0.3,6.6,0.3c2.5,0,4.5,0,6-0.1c1.5-0.1,2.7-0.3,3.5-0.6c0.8-0.3,1.3-0.8,1.6-1.5c0.3-0.7,0.4-1.6,0.4-2.7H321.8z
		 M305.8,34.1c-2.7,0-4.8,0.1-6.4,0.3c-1.6,0.2-2.9,0.6-3.7,1.1c-0.8,0.6-1.4,1.4-1.7,2.5c-0.3,1.1-0.5,2.6-0.5,4.4h23.8v-2.3
		c0-1.2-0.1-2.1-0.4-2.9c-0.3-0.8-0.8-1.4-1.6-1.8c-0.8-0.4-1.9-0.8-3.5-0.9C310.3,34.2,308.3,34.1,305.8,34.1z"/>
	<path class="st0" d="M342.7,59.4c-3.4,0-6.2-0.2-8.3-0.5c-2.2-0.4-3.8-1.1-4.9-2.3c-1.1-1.2-1.6-3-1.6-5.5c0-2.6,0.5-4.4,1.5-5.6
		c1-1.2,2.6-2,4.8-2.3c2.2-0.4,5-0.5,8.6-0.5c2.9,0,5.3,0.1,7.2,0.2s3.7,0.4,5.2,0.7c0-2.2-0.2-3.9-0.4-5.1
		c-0.3-1.2-0.7-2.2-1.5-2.8s-1.8-1-3.1-1.2c-1.4-0.2-3.2-0.3-5.5-0.3c-2.6,0-4.6,0.1-6.1,0.2c-1.5,0.1-2.5,0.3-3.2,0.6
		s-1.1,0.7-1.3,1.3c-0.2,0.6-0.3,1.3-0.3,2.2H329c0-1.8,0.2-3.2,0.7-4.3c0.5-1.1,1.3-1.9,2.5-2.4c1.2-0.6,2.7-0.9,4.8-1.1
		s4.6-0.3,7.6-0.3c3.3,0,5.9,0.2,8,0.6c2,0.4,3.5,1.2,4.6,2.3c1.1,1.1,1.8,2.6,2.1,4.6c0.4,2,0.6,4.5,0.6,7.6v13.5h-4.7V57
		c-0.6,0.6-1.3,1.1-2.3,1.4c-1,0.4-2.3,0.6-3.9,0.8C347.3,59.3,345.2,59.4,342.7,59.4z M342.7,55.6c2.8,0,5,0,6.7-0.1
		c1.7-0.1,2.9-0.2,3.7-0.5c0.8-0.3,1.4-0.8,1.6-1.4c0.3-0.7,0.4-1.6,0.4-2.7v-4.3l-12.4-0.1c-2.2,0-4,0-5.3,0.1s-2.4,0.3-3.1,0.6
		c-0.7,0.3-1.2,0.8-1.4,1.4c-0.2,0.6-0.4,1.5-0.4,2.6c0,1.1,0.1,1.9,0.4,2.5c0.2,0.6,0.7,1.1,1.4,1.4c0.7,0.3,1.7,0.5,3.1,0.6
		S340.5,55.6,342.7,55.6z"/>
	<path class="st0" d="M380.4,59.4c-3.7,0-6.6-0.4-8.7-1.2s-3.6-2.2-4.5-4.1c-0.9-1.9-1.3-4.5-1.3-7.8V30.7h4.7v15.6
		c0,1.9,0.2,3.4,0.5,4.6c0.3,1.2,0.8,2.1,1.6,2.8c0.8,0.7,1.8,1.1,3.2,1.4c1.4,0.3,3.2,0.4,5.4,0.4c3.3,0,5.8-0.3,7.7-0.8
		c1.9-0.5,3.2-1.4,3.9-2.5c0.8-1.1,1.2-2.6,1.2-4.5v-17h4.7v28.2h-4.7v-3.7c-0.7,0.9-1.5,1.7-2.6,2.4c-1,0.6-2.4,1.1-4.2,1.4
		S383.3,59.4,380.4,59.4z"/>
	<path class="st0" d="M280.1,46.6c0,2.1-0.1,3.7-0.2,4.8s-0.4,2-0.9,2.5c-0.5,0.5-1.3,0.8-2.3,0.9c-1,0.1-2.5,0.2-4.3,0.2
		c-2,0-3.6-0.1-4.6-0.4c-1-0.3-1.7-0.9-2-1.8c-0.3-0.9-0.5-2.3-0.5-4.1V34.6h6h11.3v-3.9h-11.3h-6V23h-4.7v7.7h-5.7v3.9h5.7v14.1
		c0,2.7,0.4,4.7,1.2,6.2c0.8,1.5,2,2.5,3.8,3.1c1.7,0.6,4,0.9,6.9,0.9c2.4,0,4.4-0.1,6-0.4c1.5-0.3,2.7-0.8,3.6-1.7
		c0.9-0.8,1.5-2.1,1.8-3.7c0.3-1.6,0.5-3.8,0.5-6.5H280.1z"/>
	<path class="st0" d="M223.6,100.1"/>
	<rect x="20.2" y="157.2" class="st0" width="507.6" height="3"/>
	<path class="st0" d="M491,105.7c0,3.6,0,6.9,0,9.8c-3.4,2.2-6.8,4.3-10,6.5c-9.6,6.7-19.7,6.6-29.1-0.6c-8.5-6.5-11.6-6.5-19.7,0
		c-9.4,7.5-21.2,7.3-30.7-0.4c-7.3-5.8-11.4-5.9-18.6-0.1c-10,8-20.4,8.1-30.6,0.5c-8.6-6.4-11.1-6.4-19.8,0.1
		c-9.9,7.5-20.4,7.3-30.2-0.4c-7.2-5.6-7.2-5.6-6-16.5c4.2,2.3,8.2,4,11.7,6.5c8.5,6,11.2,6.2,19.5-0.2c10.2-7.9,19.6-7.9,30.1,0
		c8.3,6.2,11.3,6.3,19.5,0.1c10.8-8.1,20.3-8,30.9,0.3c7.3,5.7,11.3,5.7,18.6-0.2c10.1-8.1,20.3-8.1,30.5-0.3
		c8.2,6.3,11.5,6.3,19.8-0.2C482.1,106.6,485.5,105.4,491,105.7z"/>
	<path class="st0" d="M296.6,77.2c4,2.2,8.3,4,11.8,6.7c6.5,4.9,11.4,5.1,17.9,0.1c11-8.6,21.1-8.6,32.2,0.1
		c6.2,4.9,11.3,4.9,17.5,0c10.9-8.7,21.7-8.7,32.6,0.2c5.8,4.7,11,4.7,17.1,0c11.6-9,21.5-8.9,32.9,0.2c5.5,4.4,10.8,4.4,16.3,0.1
		c4.6-3.6,9.5-6.6,16-6.8c0,3.6,0,7,0,10.3c-3.1,1.9-6.2,3.7-9.1,5.8c-10.1,7.4-19.7,7.4-29.8-0.1c-8.9-6.6-11.2-6.6-20.2,0.3
		c-9.2,7-19.8,7.1-29,0.2c-9.8-7.3-11.3-7.3-21.4,0.2c-8.8,6.5-19.4,6.5-28.2-0.1c-9.8-7.4-11.4-7.4-21.4,0
		c-9.3,6.8-19.1,6.2-28.7,0C296.8,90.3,293.9,85.8,296.6,77.2z"/>
	<path class="st0" d="M491,50.4c0,3.9,0,7.2,0,10.2c-3.5,2.2-7,4.1-10.1,6.4c-9.3,6.7-18.8,6.8-28.1-0.1c-9.8-7.2-11.3-7.1-21.5-0.1
		c-3.5,2.4-7.7,3.8-12.7,6.3c0-4.7,0-7.6,0-10.6c0-0.6,0.1-1.7,0.4-1.8c7.6-3.3,13.1-10.9,22.6-10.5c6.1,0.3,11.3,2.2,16,5.9
		c7.2,5.8,11.1,5.8,18.5,0C480.4,52.8,484.8,50.1,491,50.4z"/>
	<path class="st0" d="M418.6,45.4c0-4.8,0-7.6,0-10.4c0-0.6,0.1-1.6,0.5-1.8c5.2-3.2,10.2-7.2,15.8-9.2c4.1-1.5,9.2-1.2,13.6-0.2
		c3.7,0.8,7,3.5,10.3,5.8c5.8,4.1,10.3,4.4,15.9,0.1c4.8-3.6,9.6-7.1,16.3-6.9c0,3.6,0,7,0,10.2c-3.7,2.4-7.3,4.7-10.8,7.1
		c-8.6,5.9-19.2,5.6-27.9-1c-9.1-6.9-11.1-6.7-20.6,0C428.1,41.5,423.8,42.9,418.6,45.4z"/>
	<path class="st0" d="M262.1,128.6c-3.3,0-6-0.1-8.1-0.3s-3.6-0.6-4.6-1.2c-1-0.6-1.7-1.5-2.1-2.6c-0.4-1.1-0.5-2.6-0.5-4.4h4.4
		c0,1,0.1,1.8,0.2,2.4s0.6,1.1,1.2,1.4c0.7,0.3,1.8,0.6,3.3,0.7c1.5,0.1,3.6,0.2,6.4,0.2c2.9,0,5.1-0.1,6.7-0.2s2.8-0.3,3.5-0.7
		c0.7-0.3,1.1-0.8,1.3-1.4c0.2-0.6,0.2-1.4,0.2-2.5c0-1.2-0.1-2.2-0.3-2.8c-0.2-0.6-0.8-1-1.6-1.3c-0.8-0.2-2.2-0.3-4-0.3l-11-0.1
		c-2.8,0-5-0.3-6.5-0.7c-1.5-0.4-2.5-1.2-3-2.4c-0.5-1.1-0.8-2.7-0.8-4.8c0-1.9,0.3-3.4,0.9-4.5c0.6-1.1,1.5-1.8,2.8-2.2
		c1.3-0.4,2.9-0.7,5-0.8c2-0.1,4.5-0.1,7.4-0.1c3.4,0,6.1,0.1,8.1,0.3c2,0.2,3.5,0.6,4.5,1.2s1.7,1.4,2,2.5c0.3,1.1,0.5,2.5,0.5,4.3
		h-4.4c0-1-0.1-1.9-0.2-2.5c-0.1-0.6-0.5-1-1.2-1.3c-0.6-0.3-1.7-0.5-3.1-0.5c-1.4-0.1-3.4-0.1-5.9-0.1c-2.9,0-5.2,0-6.8,0.1
		c-1.6,0.1-2.8,0.2-3.5,0.5s-1.2,0.6-1.3,1.1c-0.2,0.5-0.2,1.2-0.2,2.1c0,0.9,0.1,1.7,0.2,2.2c0.1,0.5,0.4,0.9,0.8,1.2
		c0.4,0.3,1.2,0.5,2.2,0.5c1,0.1,2.4,0.1,4.2,0.2l9.4,0.1c2.8,0,5,0.3,6.5,0.7c1.5,0.4,2.5,1.2,3,2.4c0.5,1.2,0.8,2.9,0.8,5.1
		c0,2-0.3,3.6-0.9,4.7c-0.6,1.1-1.5,2-2.8,2.5c-1.3,0.6-3,0.9-5,1.1C267.7,128.6,265.1,128.6,262.1,128.6z"/>
</g>
</svg>
