<svg xmlns="http://www.w3.org/2000/svg" id="Calque_2" data-name="Calque 2" viewBox="0 0 339.43 202.38"><defs><style>      .cls-1 {        stroke: #fce5a7;      }      .cls-1, .cls-2 {        fill: none;        stroke-miterlimit: 10;        stroke-width: 2px;      }      .cls-3 {        fill: #b58033;      }      .cls-3, .cls-4, .cls-5 {        stroke-width: 0px;      }      .cls-4 {        fill: #fce5a7;      }      .cls-2 {        stroke: #ce9300;      }      .cls-5 {        fill: #ce9300;      }    </style></defs><g id="Calque_1-2" data-name="Calque 1"><g><rect class="cls-4" x="48.44" y="182.8" width="242.49" height="19.58"></rect><polyline class="cls-3" points="164.11 37.28 168.07 0 173.31 38.69"></polyline><rect class="cls-4" y="96.93" width="339.43" height="87.18"></rect><rect class="cls-5" x="48.44" y="80.27" width="242.49" height="103.11"></rect><polygon class="cls-4" points="297.27 80.27 42.93 80.27 168.31 30.84 297.27 80.27"></polygon><polygon class="cls-5" points="269.47 75.73 69.86 75.73 168.26 36.94 269.47 75.73"></polygon><rect class="cls-4" x="52.58" y="96.93" width="6.89" height="86.45"></rect><rect class="cls-4" x="71.08" y="96.93" width="6.89" height="86.45"></rect><rect class="cls-4" x="91.43" y="96.93" width="6.89" height="86.45"></rect><rect class="cls-4" x="112.65" y="96.93" width="6.89" height="86.45"></rect><rect class="cls-4" x="133.86" y="96.93" width="6.89" height="86.45"></rect><rect class="cls-4" x="155.24" y="96.93" width="6.89" height="86.45"></rect><rect class="cls-4" x="176.46" y="96.93" width="6.89" height="86.45"></rect><rect class="cls-4" x="198.88" y="96.93" width="6.89" height="86.45"></rect><rect class="cls-4" x="218.83" y="96.93" width="6.89" height="86.45"></rect><rect class="cls-4" x="239.44" y="96.93" width="6.89" height="86.45"></rect><rect class="cls-4" x="260.26" y="96.93" width="6.89" height="86.45"></rect><rect class="cls-4" x="279.63" y="96.93" width="6.89" height="86.45"></rect><line class="cls-1" x1="48.44" y1="96.93" x2="290.93" y2="96.93"></line><line class="cls-2" x1="290.93" y1="96.93" x2="339.43" y2="96.93"></line><line class="cls-2" x1="290.93" y1="102.88" x2="339.43" y2="102.88"></line><line class="cls-2" y1="96.93" x2="48.5" y2="96.93"></line><line class="cls-2" y1="102.88" x2="48.5" y2="102.88"></line><line class="cls-1" x1="48.44" y1="87.13" x2="290.93" y2="87.13"></line><line class="cls-2" x1="48.44" y1="187.45" x2="290.93" y2="187.45"></line><line class="cls-2" x1="48.44" y1="192.42" x2="290.93" y2="192.42"></line><line class="cls-2" x1="48.44" y1="198.19" x2="290.93" y2="198.19"></line><rect class="cls-5" x=".61" y="172.52" width="31.01" height="29.86"></rect><rect class="cls-5" x="307.87" y="172.52" width="31.01" height="29.86" transform="translate(646.75 374.9) rotate(-180)"></rect><path class="cls-5" d="M295.24,158.34c-.75-2.08-.1-4.45.09-6.7.38-4.65-1.24-9.79.84-13.79,1.04-2,3.01-3.85,2.5-6.11-.14-.6-.45-1.14-.55-1.75-.37-2.17,1.98-3.69,3.87-3.48,1.05,2.05-.07,4.8.66,7.03.2.62.54,1.17.77,1.77.35.9.48,1.9.59,2.89.75,6.79,1.01,13.66.77,20.5-2.37-.32-4.77-.36-7.15-.12"></path><path class="cls-5" d="M44.67,158.34c.75-2.08.1-4.45-.09-6.7-.38-4.65,1.24-9.79-.84-13.79-1.04-2-3.01-3.85-2.5-6.11.14-.6.45-1.14.55-1.75.37-2.17-1.98-3.69-3.87-3.48-1.05,2.05.07,4.8-.66,7.03-.2.62-.54,1.17-.77,1.77-.35.9-.48,1.9-.59,2.89-.75,6.79-1.01,13.66-.77,20.5,2.37-.32,4.77-.36,7.15-.12"></path><rect class="cls-3" x="291.06" y="156.85" width="16.81" height="45.53" transform="translate(598.93 359.22) rotate(-180)"></rect><rect class="cls-3" x="31.63" y="156.85" width="16.81" height="45.53"></rect></g></g></svg>