<svg xmlns="http://www.w3.org/2000/svg" id="Calque_2" data-name="Calque 2" viewBox="0 0 351.14 253.46"><defs><style>      .cls-1 {        fill: #b58033;      }      .cls-1, .cls-2, .cls-3, .cls-4 {        stroke-width: 0px;      }      .cls-2 {        fill: #fce5a7;      }      .cls-5 {        fill: none;        stroke: #ce9300;        stroke-miterlimit: 10;        stroke-width: 2px;      }      .cls-3 {        fill: #ce9300;      }      .cls-4 {        fill: #ebd396;      }    </style></defs><g id="Calque_1-2" data-name="Calque 1"><g><rect class="cls-2" x="96.99" y="151.41" width="157.54" height="102.05"></rect><polygon class="cls-3" points="254.53 151.41 96.99 151.41 119.68 102.94 226.8 102.94 254.53 151.41"></polygon><polygon class="cls-2" points="136.54 121.27 123.56 121.27 121.28 129.8 121.28 151.41 138.82 151.41 138.82 129.96 136.54 121.27"></polygon><polygon class="cls-2" points="223.96 121.27 210.99 121.27 208.71 129.8 208.71 151.41 226.24 151.41 226.24 129.96 223.96 121.27"></polygon><rect class="cls-3" x="119.95" y="81.87" width="2.09" height="21.07"></rect><rect class="cls-3" x="48.4" y="47.43" width="2.09" height="21.07"></rect><rect class="cls-3" x="68.76" y="47.43" width="2.09" height="21.07"></rect><rect class="cls-3" x="280.29" y="47.43" width="2.09" height="21.07"></rect><rect class="cls-3" x="300.65" y="47.43" width="2.09" height="21.07"></rect><rect class="cls-3" x="133.43" y="81.87" width="2.09" height="21.07"></rect><rect class="cls-3" x="146.73" y="81.87" width="2.09" height="21.07"></rect><rect class="cls-3" x="197.08" y="81.87" width="2.09" height="21.07"></rect><rect class="cls-3" x="210.56" y="81.87" width="2.09" height="21.07"></rect><rect class="cls-3" x="224.15" y="81.87" width="2.09" height="21.07"></rect><polygon class="cls-1" points="173.64 0 172.31 20.27 174.88 20.27 173.64 0"></polygon><ellipse class="cls-3" cx="173.64" cy="51.3" rx="11.26" ry="9.49"></ellipse><rect class="cls-3" x="168.21" y="22.76" width="10.85" height="25.42"></rect><ellipse class="cls-3" cx="173.64" cy="23.3" rx="5.42" ry="4.57"></ellipse><rect class="cls-2" y="114.47" width="96.99" height="138.98"></rect><rect class="cls-4" y="114.47" width="22.93" height="138.98"></rect><polygon class="cls-3" points="22.93 114.02 0 114.02 4.79 83.59 18.14 83.59 22.93 114.02"></polygon><rect class="cls-2" x="23.22" y="53.96" width="8.64" height="60.05"></rect><rect class="cls-2" x="88.35" y="53.96" width="8.64" height="60.05"></rect><polygon class="cls-3" points="96.03 114.02 23.22 114.02 38.43 67.96 80.82 67.96 96.03 114.02"></polygon><rect class="cls-2" x="49.47" y="86.29" width="18.34" height="28.18"></rect><path class="cls-1" d="M54.01,128.69h.56c2.24,0,4.06,1.82,4.06,4.06v14.25h-8.69v-14.25c0-2.24,1.82-4.06,4.06-4.06Z"></path><path class="cls-1" d="M77.69,128.69h.56c2.24,0,4.06,1.82,4.06,4.06v14.25h-8.69v-14.25c0-2.24,1.82-4.06,4.06-4.06Z"></path><path class="cls-1" d="M58.36,96.12h.56c2.24,0,4.06,1.82,4.06,4.06v14.25h-8.69v-14.25c0-2.24,1.82-4.06,4.06-4.06Z"></path><path class="cls-1" d="M129.85,128.69h.56c2.24,0,4.06,1.82,4.06,4.06v14.25h-8.69v-14.25c0-2.24,1.82-4.06,4.06-4.06Z"></path><path class="cls-1" d="M60.76,212.31h1.76c7.04,0,12.76,5.72,12.76,12.76v28.3h-27.29v-28.3c0-7.04,5.72-12.76,12.76-12.76Z"></path><path class="cls-5" d="M42.58,253.37v-26.7c0-10.42,8.45-18.87,18.87-18.87h0c10.42,0,18.87,8.45,18.87,18.87v26.7"></path><path class="cls-1" d="M11.73,128.69h.56c2.24,0,4.06,1.82,4.06,4.06v14.25H7.67v-14.25c0-2.24,1.82-4.06,4.06-4.06Z"></path><path class="cls-1" d="M11.73,205.57h.56c2.24,0,4.06,1.82,4.06,4.06v14.25H7.67v-14.25c0-2.24,1.82-4.06,4.06-4.06Z"></path><path class="cls-1" d="M173.37,205.57h1.02c4.07,0,7.37,3.3,7.37,7.37v40.43h-15.76v-40.43c0-4.07,3.3-7.37,7.37-7.37Z"></path><rect class="cls-1" x="7.67" y="174.05" width="8.69" height="18.32"></rect><rect class="cls-1" x="49.95" y="174.05" width="8.69" height="18.32"></rect><rect class="cls-1" x="73.63" y="174.05" width="8.69" height="18.32"></rect><rect class="cls-2" x="254.15" y="114.47" width="96.99" height="138.98" transform="translate(605.29 367.93) rotate(-180)"></rect><rect class="cls-4" x="328.21" y="114.47" width="22.93" height="138.98" transform="translate(679.35 367.93) rotate(-180)"></rect><polygon class="cls-3" points="328.21 114.02 351.14 114.02 346.35 83.59 333 83.59 328.21 114.02"></polygon><rect class="cls-2" x="319.28" y="53.96" width="8.64" height="60.05" transform="translate(647.2 167.98) rotate(-180)"></rect><rect class="cls-2" x="254.15" y="53.96" width="8.64" height="60.05" transform="translate(516.94 167.98) rotate(-180)"></rect><polygon class="cls-3" points="255.11 114.02 327.92 114.02 312.71 67.96 270.32 67.96 255.11 114.02"></polygon><rect class="cls-2" x="283.33" y="86.29" width="18.34" height="28.18" transform="translate(585 200.77) rotate(-180)"></rect><path class="cls-1" d="M292.5,128.69h8.69v14.25c0,2.24-1.82,4.06-4.06,4.06h-.56c-2.24,0-4.06-1.82-4.06-4.06v-14.25h0Z" transform="translate(593.69 275.7) rotate(-180)"></path><path class="cls-1" d="M268.82,128.69h8.69v14.25c0,2.24-1.82,4.06-4.06,4.06h-.56c-2.24,0-4.06-1.82-4.06-4.06v-14.25h0Z" transform="translate(546.33 275.7) rotate(-180)"></path><path class="cls-1" d="M288.16,96.12h8.69v14.25c0,2.24-1.82,4.06-4.06,4.06h-.56c-2.24,0-4.06-1.82-4.06-4.06v-14.25h0Z" transform="translate(585 210.56) rotate(-180)"></path><path class="cls-1" d="M275.86,212.31h27.29v28.3c0,7.04-5.72,12.76-12.76,12.76h-1.76c-7.04,0-12.76-5.72-12.76-12.76v-28.3h0Z" transform="translate(579 465.68) rotate(-180)"></path><path class="cls-5" d="M308.56,253.37v-26.7c0-10.42-8.45-18.87-18.87-18.87h0c-10.42,0-18.87,8.45-18.87,18.87v26.7"></path><path class="cls-1" d="M334.78,128.69h8.69v14.25c0,2.24-1.82,4.06-4.06,4.06h-.56c-2.24,0-4.06-1.82-4.06-4.06v-14.25h0Z" transform="translate(678.25 275.7) rotate(-180)"></path><path class="cls-1" d="M334.78,205.57h8.69v14.25c0,2.24-1.82,4.06-4.06,4.06h-.56c-2.24,0-4.06-1.82-4.06-4.06v-14.25h0Z" transform="translate(678.25 429.47) rotate(-180)"></path><rect class="cls-1" x="334.78" y="174.05" width="8.69" height="18.32" transform="translate(678.25 366.42) rotate(-180)"></rect><rect class="cls-1" x="292.5" y="174.05" width="8.69" height="18.32" transform="translate(593.69 366.42) rotate(-180)"></rect><rect class="cls-1" x="268.82" y="174.05" width="8.69" height="18.32" transform="translate(546.33 366.42) rotate(-180)"></rect><rect class="cls-1" x="103.43" y="165.57" width="8.69" height="28.09"></rect><rect class="cls-1" x="124.89" y="165.57" width="8.69" height="28.09"></rect><rect class="cls-1" x="146.02" y="165.57" width="8.69" height="28.09"></rect><rect class="cls-1" x="169.48" y="165.57" width="8.69" height="28.09"></rect><rect class="cls-1" x="191.87" y="165.57" width="8.69" height="28.09"></rect><rect class="cls-1" x="215.54" y="165.57" width="8.69" height="28.09"></rect><rect class="cls-1" x="237.89" y="165.57" width="8.69" height="28.09"></rect><rect class="cls-1" x="103.43" y="207.81" width="8.69" height="28.09"></rect><rect class="cls-1" x="124.89" y="207.81" width="8.69" height="28.09"></rect><rect class="cls-1" x="146.02" y="207.81" width="8.69" height="28.09"></rect><rect class="cls-1" x="169.48" y="207.81" width="8.69" height="28.09"></rect><rect class="cls-1" x="191.87" y="207.81" width="8.69" height="28.09"></rect><rect class="cls-1" x="215.54" y="207.81" width="8.69" height="28.09"></rect><rect class="cls-1" x="237.89" y="207.81" width="8.69" height="28.09"></rect><path class="cls-1" d="M217.27,128.69h.56c2.24,0,4.06,1.82,4.06,4.06v14.25h-8.69v-14.25c0-2.24,1.82-4.06,4.06-4.06Z"></path><rect class="cls-2" x="157.47" y="110.18" width="32.17" height="41.23"></rect><path class="cls-2" d="M159.56,137.85s-20.75,1.28-20.75,14.79h20.75v-14.79Z"></path><path class="cls-2" d="M187.74,137.85s20.75,1.28,20.75,14.79h-20.75v-14.79Z"></path><circle class="cls-3" cx="173.88" cy="132.6" r="9.76"></circle><path class="cls-2" d="M157.47,110.18c.16-1.29,16.08-9.79,16.08-9.79l16.08,9.79h-32.17Z"></path><rect class="cls-2" x="162.38" y="50.18" width="22.52" height="57.58"></rect><rect class="cls-3" x="167.71" y="57.42" width="2.09" height="21.07"></rect><rect class="cls-3" x="172.59" y="57.42" width="2.09" height="21.07"></rect><rect class="cls-3" x="177.64" y="57.42" width="2.09" height="21.07"></rect><line class="cls-5" y1="118.45" x2="96.51" y2="118.45"></line><line class="cls-5" y1="151.64" x2="351.14" y2="151.64"></line><line class="cls-5" y1="156.61" x2="351.14" y2="156.61"></line><line class="cls-5" y1="193.65" x2="351.14" y2="193.65"></line><line class="cls-5" x1="254.41" y1="118.45" x2="350.93" y2="118.45"></line><line class="cls-5" x1="23.22" y1="118.45" x2="23.22" y2="253.46"></line><line class="cls-5" x1="327.92" y1="118.45" x2="327.92" y2="253.46"></line><path class="cls-5" d="M118.7,156.61c-.42,0,0,96.77,0,96.77"></path><path class="cls-5" d="M139.91,156.61c-.42,0,0,96.77,0,96.77"></path><path class="cls-5" d="M162.47,156.61c-.42,0,0,96.77,0,96.77"></path><path class="cls-5" d="M207.51,156.61c-.42,0,0,96.77,0,96.77"></path><path class="cls-5" d="M232.19,156.61c-.42,0,0,96.77,0,96.77"></path><path class="cls-5" d="M184.99,156.61c-.42,0,0,96.77,0,96.77"></path></g></g></svg>