<svg xmlns="http://www.w3.org/2000/svg" id="Calque_2" data-name="Calque 2" viewBox="0 0 232.26 396.51"><defs><style>      .cls-1 {        fill: #b58033;      }      .cls-1, .cls-2, .cls-3 {        stroke-width: 0px;      }      .cls-2 {        fill: #fce5a7;      }      .cls-4 {        fill: none;        stroke: #ce9300;        stroke-miterlimit: 10;        stroke-width: 2px;      }      .cls-3 {        fill: #ce9300;      }    </style></defs><g id="Calque_1-2" data-name="Calque 1"><g><g><rect class="cls-2" x="101.02" y="73.97" width="30.23" height="52.1"></rect><g><path class="cls-2" d="M116.13,224.25c-26.11,0-47.45-22.1-49.01-49.98-.06,1.08-.1,2.16-.1,3.26,0,29.41,21.99,53.24,49.11,53.24s49.11-23.84,49.11-53.24c0-1.1-.04-2.18-.1-3.26-1.56,27.89-22.9,49.98-49.01,49.98Z"></path><path class="cls-3" d="M116.13,224.25c26.11,0,47.45-22.1,49.01-49.98-1.56-27.88-22.9-49.98-49.01-49.98s-47.45,22.1-49.01,49.98c1.56,27.89,22.9,49.98,49.01,49.98Z"></path></g><rect class="cls-2" x="52.5" y="167.83" width="127.26" height="103.4"></rect><rect class="cls-2" x="4.18" y="271.23" width="225.5" height="125.28"></rect><polyline class="cls-2" points="108.63 82.32 115.39 0 123.75 82.32"></polyline></g><g><rect class="cls-1" x="80.77" y="207.84" width="5.83" height="62.49"></rect><rect class="cls-1" x="144.67" y="207.84" width="5.83" height="62.49"></rect><rect class="cls-1" x="145.35" y="270.32" width="6.36" height="56.59"></rect><rect class="cls-1" x="170.92" y="270.32" width="6.1" height="56.59"></rect><rect class="cls-1" x="56.91" y="270.32" width="6.1" height="56.59"></rect><line class="cls-4" x1="232.26" y1="339.9" y2="339.9"></line><line class="cls-4" x1="232.26" y1="327.07" y2="327.07"></line><line class="cls-4" x1="232.26" y1="270.32" y2="270.32"></line><line class="cls-4" x1="180.9" y1="207.84" x2="51.36" y2="207.84"></line><line class="cls-4" x1="180.9" y1="168.11" x2="51.36" y2="168.11"></line><rect class="cls-1" x="131.54" y="270.32" width="6.36" height="56.59"></rect><rect class="cls-1" x="144.49" y="339.9" width="6.36" height="56.61"></rect><rect class="cls-1" x="94.66" y="270.32" width="6.36" height="56.59"></rect><rect class="cls-1" x="80.77" y="270.32" width="6.36" height="56.59"></rect><rect class="cls-1" x="80.77" y="339.9" width="6.36" height="56.61"></rect><rect class="cls-1" x="56.78" y="339.9" width="6.36" height="56.61"></rect><rect class="cls-1" x="21.51" y="339.9" width="6.36" height="56.61"></rect><rect class="cls-1" x="170.78" y="339.9" width="6.36" height="56.61"></rect><rect class="cls-1" x="204.99" y="339.9" width="6.36" height="56.61"></rect><rect class="cls-1" x="113.38" y="207.84" width="5.83" height="62.49"></rect></g><g><path class="cls-3" d="M101.3,176.84h1.28c2.06,0,3.73,1.67,3.73,3.73v19.33h-8.75v-19.33c0-2.06,1.67-3.73,3.73-3.73Z"></path><path class="cls-3" d="M130.34,176.84h1.28c2.06,0,3.73,1.67,3.73,3.73v19.33h-8.75v-19.33c0-2.06,1.67-3.73,3.73-3.73Z"></path><path class="cls-3" d="M155.55,183.21h.97c1.56,0,2.83,1.27,2.83,2.83v13.61h-6.63v-13.61c0-1.56,1.27-2.83,2.83-2.83Z"></path><path class="cls-3" d="M122.4,81.13h.97c1.56,0,2.83,1.27,2.83,2.83v13.61h-6.63v-13.61c0-1.56,1.27-2.83,2.83-2.83Z"></path><path class="cls-3" d="M109.68,81.13h.97c1.56,0,2.83,1.27,2.83,2.83v13.61h-6.63v-13.61c0-1.56,1.27-2.83,2.83-2.83Z"></path><path class="cls-3" d="M77.33,183.21h.97c1.56,0,2.83,1.27,2.83,2.83v13.61h-6.63v-13.61c0-1.56,1.27-2.83,2.83-2.83Z"></path><path class="cls-3" d="M99.35,230.06h1.44c2.32,0,4.2,1.88,4.2,4.2v21.75h-9.84v-21.75c0-2.32,1.88-4.2,4.2-4.2Z"></path><path class="cls-3" d="M132.01,230.06h1.44c2.32,0,4.2,1.88,4.2,4.2v21.75h-9.84v-21.75c0-2.32,1.88-4.2,4.2-4.2Z"></path><path class="cls-3" d="M114.88,279.19h2.75c4.43,0,8.03,3.6,8.03,8.03v31.21h-18.81v-31.21c0-4.43,3.6-8.03,8.03-8.03Z"></path><path class="cls-3" d="M160.37,237.21h1.09c1.76,0,3.18,1.43,3.18,3.18v15.31h-7.46v-15.31c0-1.76,1.43-3.18,3.18-3.18Z"></path><path class="cls-3" d="M72.38,237.21h1.09c1.76,0,3.18,1.43,3.18,3.18v15.31h-7.46v-15.31c0-1.76,1.43-3.18,3.18-3.18Z"></path><rect class="cls-3" x="31.55" y="293.77" width="13.79" height="22.54"></rect><rect class="cls-3" x="31.55" y="346.8" width="13.79" height="29.96"></rect><rect class="cls-3" x="104.05" y="339.9" width="23.07" height="56.61"></rect><rect class="cls-3" x="186.92" y="293.77" width="13.79" height="22.54"></rect><rect class="cls-3" x="186.92" y="346.8" width="13.79" height="29.96"></rect></g></g></g></svg>