<svg xmlns="http://www.w3.org/2000/svg" id="Calque_2" data-name="Calque 2" viewBox="0 0 110.51 421.14"><defs><style>      .cls-1 {        fill: #b58033;      }      .cls-1, .cls-2, .cls-3, .cls-4, .cls-5 {        stroke-width: 0px;      }      .cls-2 {        fill: #fce5a7;      }      .cls-3 {        fill: #ce9300;      }      .cls-4 {        fill: #ccac78;      }      .cls-5 {        fill: #ebd396;      }    </style></defs><g id="Calque_1-2" data-name="Calque 1"><g><g><path class="cls-1" d="M44.58,98.25c.15,0-1.94-1.27-2.06-1.18s-.29.06-.44.02c-2.58-.59-5.17-1.18-7.75-1.77-.74-.17-1.48-.34-2.21-.57-1.62-.52-3.16-1.36-4.85-1.57.83,1.1,2.06,1.8,3.26,2.48,2.55,1.44,7.88,3.66,10.43,5.1"></path><path class="cls-1" d="M45.48,96.26c-3-4.38-6-10.49-8.99-14.86,4.72,4,9.25,8.21,13.58,12.62"></path><path class="cls-1" d="M53.26,93.39c1.48-7.04,3.51-13.96,6.05-20.69.28,7.57-2.13,15.27-.29,22.62"></path><path class="cls-1" d="M66.53,98.7c6.7-2.01,13.5-4.04,20.5-4.13-7.4,2.72-14.8,5.44-22.2,8.17"></path><path class="cls-1" d="M66.49,106.23c1.41-.34,2.88-.38,4.33-.41,4.8-.11,9.61-.21,14.41-.32-5.72-.42-11.85-1.46-17.49-2.54-.6-.12-.81-.71-1.05-.15"></path><path class="cls-1" d="M40.41,110.35c-1.23-1.25-1.61-3.16-1.36-4.89s1.05-3.34,1.93-4.86c.89-1.53,1.89-3.03,3.27-4.13,1.41-1.11,3.13-1.73,4.85-2.21,3.43-.96,7.09-1.42,10.56-.61s6.74,3.02,8.18,6.28c1.16,2.62,1.06,5.64.57,8.46"></path><path class="cls-3" d="M69.66,138.35c-1.27-3.4-2.1-6.96-2.46-10.57-.06-.58-.1-1.18.08-1.74.19-.58.61-1.06.89-1.6,1.41-2.65-.57-5.77-.85-8.76-.03-.26-.04-.54.07-.78.11-.26.33-.46.51-.69.68-.87.64-2.09.56-3.19-.21-2.71-.48-5.53-1.92-7.83-1.34-2.13-3.58-3.6-5.98-4.35-2.41-.74-4.98-.81-7.48-.58-4.14.38-8.56,1.79-10.84,5.27-1.03,1.57-1.52,3.42-2,5.23-.51,1.93-1.02,3.98-.5,5.91.09.34.22.69.16,1.04-.1.55-.62.91-1.03,1.28-1.49,1.33-2.01,3.63-1.23,5.47.31.74.81,1.39,1.3,2.03,3.94,5.05,8.42,9.81,13.93,13.07,5.51,3.27,12.17,4.93,18.43,3.55"></path><path class="cls-1" d="M60.87,94.76c3.04-2.45,6.39-4.5,9.73-6.53,2.84-1.73,5.67-3.46,8.51-5.19-4.37,4.73-10.03,8.15-14.19,13.06"></path><g><path class="cls-3" d="M59.6,126.97c-.01-2.01-.03-4.01-.04-6.02,0,.72-1.46,2-1.97,2.19-.89.34-2.03.21-2.91,0-2.61-.66-6.4-2.36-7.46-5.58-.16,1.63-.33,3.26-.49,4.89,3.27,3.94,8.27,6.42,12.87,4.53Z"></path><path class="cls-2" d="M62.64,139.73c-3.28-1.12-3.01-7.59-3.03-10.68,0-.7,0-1.39-.01-2.09-4.61,1.9-9.6-.59-12.87-4.53-.37,3.66-.73,7.31-1.1,10.97l17.01,6.33Z"></path></g><path class="cls-2" d="M63.64,120.17c-1.06,3.19-3.77,6.13-7.28,6.54-2.53.3-5.08-.76-7.01-2.34s-3.33-3.65-4.64-5.71c-1.03.32-2.26-.11-2.81-.99s-.37-2.11.41-2.81c.27-.24.59-.42.84-.68.41-.44.54-1.03.79-1.56.87-1.81,3.04-2.63,4.92-3.53,2.89-1.37,4.93-2.95,6.77-5.42,1.38,1.88,3.29,3.42,5.47,4.41.87.4,1.82.73,2.47,1.4,1.5,1.54.63,3.37.59,5.17-.04,1.94.12,3.59-.52,5.53Z"></path><g><path class="cls-3" d="M58.08,112.49c-.01.19-.03.38-.05.56-.16,1.16-.27,2.4-.27,3.58-.02.32-.07.7-.36.84-.29.15-.65-.03-.98-.05-.25-.01-.51.08-.74-.03-.35-.15-.38-.62-.37-1-.17,0-.3.16-.32.32s.03.33.08.49c.09.29.21.6.47.74.14.08.3.09.46.11.48.05.96.1,1.43,0,1.46-.33,1.48-1.82,1.38-3.02-.03-.41,0-.91.36-1.11.15-.09.33-.1.5-.11.48-.04,2.85-.12,2.8-.95-.02-.3-.35-.45-.62-.6s-.52-.48-.34-.71c.71.15,1.42.3,2.13.46-.93-1.28-3.55-2.84-5-1.44-.5.48-.54,1.24-.58,1.94Z"></path><path class="cls-3" d="M51.92,114.51c-.8.15-3.32-.73-2.47-1.95.37-.54,1.2-.47,1.73-.85-.84-.63-2.05-.58-3-.13-.09.04-.18.09-.27.08s-.19-.1-.16-.19c.01-.04.04-.07.06-.1.78-.82,1.52-1.3,2.65-1.41.71-.07,1.43-.14,2.14-.21.47-.05.94-.09,1.4.01.99.22,1.2.94,1.1,1.84-.08.72-.15,1.46-.45,2.13-.14-.2-.3-.39-.48-.55-.06-.05-.12-.1-.19-.11-.22-.04-.35.22-.46.41-.31.58-.96.91-1.6,1.03Z"></path><path class="cls-3" d="M58.29,120.43c-.29-.16-.58-.33-.87-.49-.15-.08-.3-.17-.46-.13-.32.08-.49.65-.82.62-.18-.01-.31-.2-.47-.3-.32-.2-.7-.05-1.03.12-.49.24-.98.46-1.46.73-.02.01,1.18.99,1.36,1.07.7.32,1.54.46,2.28.36.89-.12,1.73-.66,2.3-1.51-.27-.15-.55-.31-.82-.46Z"></path></g></g><path class="cls-3" d="M27.34,39.77c2.54-1.93,4.07-4.95,4.79-8.06s.71-6.33.69-9.52c0-.45-.1-1.02-.54-1.11-.48,1.43-1.47,2.68-2.74,3.49,1.57-4.64,1.89-9.69.93-14.49-1.47,3.78-3.01,7.68-5.87,10.56,1.39-6.77,1.92-13.72,1.59-20.62-1.61,6.38-5.13,12.11-7.33,18.32s-2.92,13.57.83,18.99c.62.9,2.01,1.74,2.67.86"></path><path class="cls-1" d="M15.4,46.36c-1.33-1.16-1.3-3.21-1-4.95.16-.94.38-1.88.85-2.7,1.77-3.06,10.87-2.07,14.13-2.33,1.41-.11,2.92-.2,4.16.48,1.33.73,2.09,2.23,2.3,3.73s-.04,3.02-.3,4.51"></path><path class="cls-3" d="M19.6,46.96c-1.2-.03-2.4-.3-3.5-.79-.86-.38-1.77-1.12-1.61-2.05.11-.59.63-1.01,1.15-1.33,3.04-1.84,6.79-1.98,10.34-1.93,3.06.04,6.32.25,8.81,2.02.46.33.91.74,1.04,1.29.25,1.07-.82,1.99-1.85,2.37-1.45.53-3.03.54-4.58.55-2.13.01-4.27.02-6.4.03-1.01,0-2.03.01-3.04-.15-1.39-.22-2.73-.76-4.14-.87"></path><path class="cls-1" d="M40.01,105.55c-1.84,1.06-4.27,0-6.26.76.33.26.27.78.5,1.12.28.4.85.43,1.34.42,1.48-.03,2.95.93,4.43.89"></path><path class="cls-1" d="M23.24,76.01c-1.59-4.19-.45-9.06-2.13-13.23-.31-.77-.71-1.51-.91-2.31-.63-2.52.84-5.18.34-7.73-.24-1.21-.89-2.29-1.26-3.46s-.38-2.61.5-3.47c.48-.47,1.15-.68,1.8-.84,2.13-.52,4.37-.58,6.52-.17.57.11,1.15.26,1.62.6.84.61,1.17,1.73,1.13,2.77s-.41,2.03-.71,3.03c-2.2,7.49-.45,15.55-1.44,23.3-.07.56-.16,1.13-.48,1.6-.61.91-1.92,1.13-2.96.8s-1.9-1.08-2.71-1.82"></path><path class="cls-2" d="M19.78,57.6c-.15.55-.6.95-.89,1.44-.61,1.04-.42,2.38.06,3.48s1.22,2.08,1.73,3.17c1.19,2.59.98,5.57.74,8.41-.27,3.22-.41,6.46-.82,9.67-.75,5.94-.7,7.04-.02,8.49,1.26,2.68,1.69,5.67,2.17,8.59.38,2.32-.58,4.13-.55,6.42.09,5.67.74,11.7,3.47,16.77,2.49-3.18,4.65-6.62,6.41-10.26.78-1.61,1.49-3.29,1.62-5.07.14-1.97-.43-3.91-.72-5.86-.58-3.96.04-8-.36-11.98-.42-4.09-1.9-7.99-2.88-11.99-.51-2.1-.89-4.28-.6-6.43.27-2,.17-3.72.33-5.67.19-2.41.92-4.75,1.02-7.17.13-3.05-.98-6.53-3.79-7.73-.38,1.06.59,2.07,1.16,3.04,1.1,1.89.69,4.24.56,6.42-.27,4.57.79,9.31-.69,13.64-.18.54-.43,1.09-.91,1.4-.68.45-1.65.21-2.24-.35s-.86-1.39-.99-2.19c-.53-3.06.45-6.55-1.36-9.07-.67-.93-1.74-1.86-1.45-2.97.28-1.06,1.62-1.4,2.71-1.37,1.1.03,2.32.21,3.18-.47-.92-.95-2.44-1.25-3.66-.74,1.05-.15,2.1-.31,3.14-.46.27-.04.55-.09.75-.26.46-.41.18-1.23-.35-1.54s-1.18-.28-1.8-.32-1.3-.23-1.59-.77c.76-.46,3.07-2.27,2.08-3.21-.2-.19-1.61.05-1.93,0-.75-.12-1.48-.44-2.08-.9-1.02-.77-1.71-1.96-1.88-3.23-.08-.6-.04-1.22-.16-1.82-.05-.27-.23-.6-.5-.57-.1.01-.19.08-.27.14-.9.76-1.03,2.12-.81,3.28.29,1.55.41,3.59.92,5.04.3.87,1.55,1.93,1.27,2.97Z"></path><path class="cls-4" d="M29.3,170.21c-1.38-1.99-2.09-4.43-2-6.84.02-.5.07-1.01-.11-1.48-.54-1.4-2.56-1.37-3.75-2.3-1.22-.96-1.32-2.78-1.03-4.31s.86-3.06.6-4.6c-.16-.91-.61-1.79-.51-2.71.15-1.36,1.45-2.41,1.48-3.77.06-2.64-4.4-3.69-4.22-6.32.06-.9.7-1.67.84-2.56.2-1.27-.63-2.44-1.32-3.53-1.74-2.73-2.82-5.96-2.6-9.19.21-3.12,1.6-6.03,3.04-8.81,1.79-3.45,3.84-6.99,7.16-9.01,3.32-2.02,8.27-1.88,10.51,1.3,2.14,3.04,1.01,7.16.59,10.85-.03.23-.05.46.02.68.21.69,1.1.82,1.76,1.12,1.01.46,1.61,1.49,2.16,2.45,3.59,6.27,8.48,12.58,15.51,14.24,2.72.64,5.74.58,8.04,2.18.25.17.49.37.63.64.35.72-.19,1.54-.72,2.14-4.01,4.59-8.76,8.47-13.49,12.32-7.56,6.16-15.11,12.32-22.67,18.48"></path><g><path class="cls-4" d="M25.21,223.72c3.16-2.97,6.45-5.81,9.85-8.5,3.57-2.83,7.31-5.55,10.09-9.19,2.03-2.66,3.47-5.73,4.9-8.77,4.11-8.77,8.24-17.57,11-26.88,2.76-9.3,4.12-19.2,2.57-28.79-2.17,4.66-4.7,9.29-6.52,14.11-1.52,4.03-4.24,6.47-7.48,9.31-6.01,5.27-12.59,10.14-16.91,16.93-2.01,3.16-3.46,6.62-4.9,10.09.03.03.05.06.08.1.29.44.33,1.01.33,1.55,0,4.07-1.38,8.12-3.86,11.3-.77,1-1.67,1.93-2.16,3.1-.49,1.17-.48,2.68.41,3.56.53.52,1.35.82,1.58,1.53.15.46,0,.96-.11,1.43-.43,1.71-.46,3.52-.12,5.25.35,1.76,1.44,3.01,2.01,4.56,1.03-2.78,2.2-5.5,3.52-8.14,2.01-4.03,4.34-7.89,6.51-11.83,3.54-6.42,6.66-13.06,9.78-19.7,2.61-5.56,5.23-11.12,7.84-16.69,2.36-5.03,4.73-10.07,6.86-15.21.17-.41.34-.83.51-1.24-1.08,2.08-2.42,4.03-3.93,5.87"></path><path class="cls-2" d="M24.42,249.3c3.66-.04,6.67-.1,9.72-2.16,3.33-2.25,6.53-4.7,9.56-7.34,5.93-5.15,11.26-11,15.81-17.4,3.76-5.29,7.09-11.24,7.36-17.72.15-3.51-.62-6.99-1.27-10.44-.12-.63-.24-1.29-.1-1.92.22-.98,1-1.72,1.75-2.41,3.62-3.34,6.49-7.21,7.57-12.12.43-1.96.45-3.98.44-5.98,0-.29.01-.61.23-.8.11-.1.25-.14.38-.18,2.22-.7,3.69-.59,2.7-3.37-.69-1.91-1.05-3.94-1.08-5.97-.03-1.66.36-3.24.07-4.86-.7-3.85-1.2-7.84-2.64-11.51-1.13-2.87-2.96-5.62-5.51-7.4-1.6-1.11-5.88-1.01-6.59-2.78-3.55,2.27-5.93,5.94-8.68,9.15-2.1,2.45-4.46,4.66-6.81,6.87-4.01,3.77-8.02,7.54-12.03,11.31-3.25,3.05-6.51,6.12-9.21,9.67-2.93,3.84-4.26,8.13-6.55,12.26-1.67,3.02-1.22,8.78,3.49,8.71,1.5-.03,3.38-.79,4.28.35,1.45-3.42,2.91-6.84,4.92-9.96,4.34-6.7,10.94-11.5,16.98-16.71,2.15-1.85,4.56-3.8,6.3-6.07,1.64-2.14,3.24-4.24,5.19-6.15.16,2.11-.51,4.15-1.36,6.06-.75,1.67-1.2,3.36-1.98,5.02-3.3,7.03-7.18,14.11-7.65,22.04.8-2.88,1.95-5.65,3.4-8.26.58,5.26-1.43,10.55-4.48,14.87-3.05,4.32-7.08,7.82-11.08,11.28,2.46-1.7,5.18-3.03,8.03-3.92-1.27.4-4.4,5.62-5.65,6.8-2.4,2.27-5.01,4.3-7.38,6.59-2.37,2.29-4.05,4.69-5.7,7.52-1.46,2.53-1.64,5.45-1.8,8.52-.11,2.18.08,4.38.58,6.5.47,1.97,1.19,4.03.59,5.97-.57,1.8-2.18,3.07-3.01,4.77-.18.36-.28.76-.33,1.18.51,0,1.03.01,1.54,0Z"></path><path class="cls-5" d="M25.05,297.21c2.6-1.61,3.39-5.01,5.38-7.33,1.95-2.27,4.93-3.37,7.17-5.36,1.45-1.29,2.55-2.93,3.86-4.37,7.68-8.43,21.42-9.18,28.84-17.84-1.68-.89-3.33-1.84-4.95-2.84-.75-.47-1.61-1.18-1.41-2.05.14-.61.75-.98,1.3-1.28,4.27-2.28,8.54-4.55,12.81-6.83-.26-.11-.51-.23-.77-.34-1.17-.5-2.42-1.01-3.19-2.02.78,1.01,2.02,1.52,3.19,2.02.26.11.51.23.77.34,1.57-.84,3.15-1.68,4.72-2.52,1-.53,2.06-1.12,2.6-2.12.55-1.02.44-2.25.31-3.39-2.15-19.79-5.33-39.48-9.51-58.94-.38-1.79-.78-3.59-1.3-5.34-.06,1.1-.32,2.2-.74,3.21-1.01,2.44-2.82,4.46-4.72,6.29-1.76,1.69-3.72,3.45-4.2,5.85-.42,2.13.45,4.28.96,6.39,1.05,4.37.5,9.1-1.5,13.11-2.74,5.48-7.91,9.38-10.97,14.69-1.01,1.76-1.8,3.68-3.13,5.21-2.42,2.78-6.29,3.88-8.94,6.45-1.99,1.94-3.17,4.61-5.19,6.52-3,2.82-7.4,3.56-11.51,3.6-.51,0-1.02,0-1.53,0-.17,1.54.54,3.22,2.02,3.19-3.16,5.94-4.82,12.67-4.77,19.4.02,3.16.4,6.46-.78,9.39-.59,1.47-1.56,2.8-1.86,4.36-.52,2.77,1.21,5.65.5,8.39-.29,1.11-.95,2.07-1.66,2.98,2.32,1.93,5.67,2.76,8.19,1.19Z"></path><path class="cls-4" d="M86.94,246.21c.31-.35.74-.59,1-.98.27-.41.32-.92.36-1.41.36-5.06,0-10.22.55-15.24.51-4.72-1.5-10.35-2.37-15.02-.21-1.15-.43-2.33-.2-3.48.43-2.15,2.3-3.7,3.18-5.71.61-1.4.63-3.22-.49-4.25-.43-.4-.99-.64-1.5-.94-3.66-2.11-4.84-6.84-4.94-11.07-.1-4.23.51-8.61-1-12.56-.27-.72-.62-1.45-.52-2.21.08-.64.46-1.19.83-1.71.7-1,1.4-2,2.1-3,.53-.76,1.09-1.58,1.12-2.51.05-1.55-1.35-2.75-2.71-3.49-1.37-.74-2.93-1.37-3.71-2.72-.39-.68-.54-1.47-.67-2.24-.05-.3-.1-.59-.14-.89-1.35,1.46-2.01,3.59-1.45,5.52.7,2.4,2.92,4.9,1.57,7-.78-.87-1.61-1.78-2.71-2.18-1.1-.41-2.55-.12-3.07.92-.76,1.53.79,3.1,1.69,4.55.82,1.31,1.12,2.86,1.03,4.41.51,1.76.91,3.56,1.3,5.34,4.18,19.47,7.36,39.15,9.51,58.94.12,1.15.23,2.38-.31,3.39-.54,1-1.6,1.59-2.6,2.12-1.57.84-3.15,1.68-4.72,2.52,2.05.91,4.06,1.92,6.01,3.04.57.32,1.14.67,1.53,1.2.29.4.45.87.6,1.35.04-2.06.07-4.11.11-6.17.02-.89.06-1.85.64-2.52Z"></path><path class="cls-4" d="M84.07,252.35c-1.95-1.12-3.96-2.13-6.01-3.04-4.27,2.28-8.54,4.55-12.81,6.83-.55.3-1.17.66-1.3,1.28-.19.87.66,1.58,1.41,2.05,1.62,1.01,3.27,1.95,4.95,2.84-7.42,8.66-21.17,9.41-28.84,17.84-1.31,1.44-2.41,3.07-3.86,4.37-2.24,1.99-5.22,3.09-7.17,5.36-1.99,2.32-2.78,5.71-5.38,7.33-2.52,1.57-5.87.74-8.19-1.19-.21.27-.42.53-.63.8-3.02,3.8-5.55,8-7.51,12.45-.3.68-.52,1.62.08,2.05.6.43,1.41-.06,1.99-.51,2.42-1.86,5.18-3.28,8.1-4.16,4.24-1.29,8.72-1.44,13.14-1.59,6.83-.23,13.65-.45,20.48-.68,7.16-.24,14.42-.47,21.38,1.21,3.81.92,7.59,2.4,11.51,2.19,1.09-.06,2.41-.47,2.61-1.54.14-.78-.4-1.5-.82-2.17-1.68-2.69-1.69-6.06-1.65-9.23.19-13.31.42-26.62.65-39.93-.15-.47-.31-.95-.6-1.35-.38-.53-.96-.88-1.53-1.2Z"></path></g><path class="cls-3" d="M88.82,200.63c7.5-11.07,14.64-22.38,21.42-33.91.16-.27.32-.56.26-.86-.05-.25-.24-.44-.42-.61-4.06-3.79-10.11-4.59-14.64-7.81-1.27-.9-2.84-2.04-4.21-1.3-.5.27-.85.75-1.18,1.22-3.01,4.24-6.03,8.47-9.04,12.71-.46.65-.93,1.32-1.1,2.1-.12.57-.08,1.16-.03,1.75.54,6.43,1.08,12.87,1.62,19.3.13,1.6.3,3.29,1.22,4.6,1.29,1.84,3.69,2.46,5.89,2.95"></path><path class="cls-2" d="M103.51,183.54c1.49-1.6,2.96-3.2,4.44-4.81.25-.28.52-.57.58-.94.06-.35-.07-.7-.2-1.03-.65-1.6-1.47-3.13-2.44-4.55-.46-.68-1.13-1.93-1.87-2.31-.55-.28-1.38-.05-1.48.55-.05.32.11.63.25.92.65,1.31,1.03,2.74,1.13,4.2,0,.15.01.31-.08.43-.1.13-.29.17-.45.17-.77.02-1.45-.44-2.14-.78s-1.56-.55-2.18-.09c-.26.19-.43.48-.59.75-.58.98-1.18,2.02-1.25,3.16-.05.88.23,1.75.36,2.63.44,2.98-.85,5.92-2.12,8.66.16-.34,1.65-.9,2.02-1.17.78-.57,1.43-1.23,2.09-1.93,1.25-1.34,2.67-2.5,3.93-3.86Z"></path><polygon class="cls-2" points="6.86 303.06 0 421.14 104.72 421.14 92.52 303.06 6.86 303.06"></polygon></g></g></svg>