<svg xmlns="http://www.w3.org/2000/svg" id="Calque_2" data-name="Calque 2" viewBox="0 0 391.32 221.3"><defs><style>      .cls-1 {        fill: #dbb07a;      }      .cls-1, .cls-2 {        stroke-width: 0px;      }      .cls-2 {        fill: #fce5a7;      }      .cls-3, .cls-4 {        fill: none;        stroke: #ce9300;        stroke-linecap: round;        stroke-linejoin: round;      }      .cls-4 {        stroke-width: 2px;      }    </style></defs><g id="Calque_1-2" data-name="Calque 1"><g><polygon class="cls-2" points="0 215.92 200.19 0 289.69 220.33 0 215.92"></polygon><polygon class="cls-1" points="200.19 0 288.89 220.33 391.32 212.87 200.19 0"></polygon><g><line class="cls-4" x1="186.55" y1="14.71" x2="256.7" y2="219.83"></line><line class="cls-4" x1="171.56" y1="32.21" x2="221.56" y2="219.3"></line><line class="cls-4" x1="156.13" y1="47.39" x2="191.94" y2="218.64"></line><line class="cls-4" x1="140.25" y1="65.17" x2="164.7" y2="218.34"></line><line class="cls-4" x1="122.39" y1="84.43" x2="137.34" y2="217.98"></line><line class="cls-4" x1="105.23" y1="102.42" x2="110.85" y2="217.61"></line><line class="cls-4" x1="85.46" y1="123.74" x2="86.65" y2="217.58"></line><line class="cls-4" x1="63.99" y1="146.38" x2="63.52" y2="216.82"></line><line class="cls-4" x1="44.38" y1="168.86" x2="43.43" y2="216.49"></line><line class="cls-4" x1="25.12" y1="189.64" x2="23.08" y2="216.78"></line></g><g><line class="cls-4" x1="208.16" y1="18.64" x2="23.53" y2="216.88"></line><line class="cls-4" x1="43.34" y1="216.9" x2="214.34" y2="37.85"></line><line class="cls-4" x1="63.16" y1="216.91" x2="223" y2="57.06"></line><line class="cls-4" x1="86.68" y1="216.94" x2="231.65" y2="79.47"></line><line class="cls-4" x1="111.45" y1="216.96" x2="240.31" y2="100.28"></line><line class="cls-4" x1="139.93" y1="218.59" x2="248.96" y2="122.69"></line><line class="cls-4" x1="164.7" y1="218.61" x2="257.62" y2="145.1"></line><line class="cls-4" x1="191.94" y1="218.64" x2="266.28" y2="165.91"></line><line class="cls-4" x1="224.14" y1="218.67" x2="274.93" y2="186.72"></line><line class="cls-4" x1="256.34" y1="220.3" x2="282.35" y2="204.33"></line></g><g><line class="cls-3" x1="211.88" y1="12.24" x2="298.19" y2="218.62"></line><line class="cls-3" x1="232.92" y1="36.26" x2="310.5" y2="217.81"></line><line class="cls-3" x1="250.24" y1="55.48" x2="320.87" y2="216.97"></line><line class="cls-3" x1="270.04" y1="77.9" x2="330.42" y2="216.43"></line><line class="cls-3" x1="289.84" y1="100.32" x2="340.01" y2="215.84"></line><line class="cls-3" x1="307.17" y1="119.54" x2="349.29" y2="215.25"></line><line class="cls-3" x1="325.73" y1="140.36" x2="357.78" y2="214.96"></line><line class="cls-3" x1="343.06" y1="159.58" x2="365.87" y2="214.11"></line><line class="cls-3" x1="357.91" y1="177.2" x2="372.91" y2="213.63"></line><line class="cls-3" x1="372.76" y1="193.21" x2="380.06" y2="213.62"></line></g><g><line class="cls-3" x1="206.92" y1="20.24" x2="379.91" y2="213.7"></line><line class="cls-3" x1="372.95" y1="213.94" x2="214.34" y2="37.85"></line><line class="cls-3" x1="366" y1="214.18" x2="223" y2="57.06"></line><line class="cls-3" x1="357.75" y1="214.46" x2="231.65" y2="79.47"></line><line class="cls-3" x1="349.05" y1="214.76" x2="240.31" y2="100.28"></line><line class="cls-3" x1="339.12" y1="216.34" x2="248.96" y2="122.69"></line><line class="cls-3" x1="330.43" y1="216.64" x2="257.62" y2="145.1"></line><line class="cls-3" x1="320.87" y1="216.97" x2="266.28" y2="164.31"></line><line class="cls-3" x1="309.57" y1="217.36" x2="274.93" y2="186.72"></line><line class="cls-3" x1="298.34" y1="218.98" x2="282.35" y2="204.33"></line></g></g></g></svg>