<svg xmlns="http://www.w3.org/2000/svg" id="Calque_2" data-name="Calque 2" viewBox="0 0 252.74 356.58"><defs><style>      .cls-1 {        fill: #b58033;      }      .cls-1, .cls-2, .cls-3 {        stroke-width: 0px;      }      .cls-2 {        fill: #fce5a7;      }      .cls-4 {        fill: none;        stroke: #ce9300;        stroke-miterlimit: 10;        stroke-width: 2px;      }      .cls-3 {        fill: #ce9300;      }    </style></defs><g id="Calque_1-2" data-name="Calque 1"><g><polyline class="cls-1" points="117.1 141.5 127.01 33.31 137.64 142.26"></polyline><rect class="cls-2" y="224.91" width="252.74" height="131.67"></rect><rect class="cls-2" x="9.66" y="126.26" width="235.4" height="131.67"></rect><rect class="cls-2" x="7.91" y="12.37" width="92.6" height="131.67"></rect><rect class="cls-2" x="151.47" y="12.37" width="92.6" height="131.67"></rect><path class="cls-3" d="M144.28,286.77l-17.69-12.22-16.79,12.18c-8.94,6.48-14.22,16.85-14.22,27.88v41.97h63.58v-41.47c0-11.31-5.56-21.91-14.87-28.34Z"></path><path class="cls-3" d="M212.41,291.12l-14.18-11.46-13.46,11.42c-7.16,6.07-11.4,15.8-11.4,26.15v39.35h50.96v-38.89c0-10.61-4.45-20.54-11.92-26.57Z"></path><path class="cls-3" d="M67.26,291.12l-14.18-11.46-13.46,11.42c-7.16,6.07-11.4,15.8-11.4,26.15v39.35h50.96v-38.89c0-10.61-4.45-20.54-11.92-26.57Z"></path><path class="cls-3" d="M67.97,196.77l-12.78-10.64-12.13,10.6c-6.45,5.64-10.27,14.67-10.27,24.27v36.53h45.92v-36.1c0-9.85-4.01-19.07-10.74-24.67Z"></path><circle class="cls-1" cx="55.03" cy="201.93" r="8.25"></circle><path class="cls-3" d="M45.21,41.88h0c3.05,0,5.53,2.48,5.53,5.53v77.32h-11.06V47.41c0-3.05,2.48-5.53,5.53-5.53Z"></path><path class="cls-3" d="M67.75,41.88h0c3.05,0,5.53,2.48,5.53,5.53v77.32h-11.06V47.41c0-3.05,2.48-5.53,5.53-5.53Z"></path><path class="cls-3" d="M183.77,41.88h0c3.05,0,5.53,2.48,5.53,5.53v77.32h-11.06V47.41c0-3.05,2.48-5.53,5.53-5.53Z"></path><path class="cls-3" d="M206.31,41.88h0c3.05,0,5.53,2.48,5.53,5.53v77.32h-11.06V47.41c0-3.05,2.48-5.53,5.53-5.53Z"></path><path class="cls-1" d="M67.66,212.54h0c3.05,0,5.53,2.48,5.53,5.53v39.47h-11.06v-39.47c0-3.05,2.48-5.53,5.53-5.53Z"></path><path class="cls-1" d="M44.27,212.54h0c3.05,0,5.53,2.48,5.53,5.53v39.47h-11.06v-39.47c0-3.05,2.48-5.53,5.53-5.53Z"></path><path class="cls-1" d="M64.68,311.58h0c3.05,0,5.53,2.48,5.53,5.53v39.47h-11.06v-39.47c0-3.05,2.48-5.53,5.53-5.53Z"></path><path class="cls-1" d="M41.3,311.58h0c3.05,0,5.53,2.48,5.53,5.53v39.47h-11.06v-39.47c0-3.05,2.48-5.53,5.53-5.53Z"></path><path class="cls-1" d="M138.29,311.58h0c3.05,0,5.53,2.48,5.53,5.53v39.47h-11.06v-39.47c0-3.05,2.48-5.53,5.53-5.53Z"></path><path class="cls-1" d="M114.9,311.58h0c3.05,0,5.53,2.48,5.53,5.53v39.47h-11.06v-39.47c0-3.05,2.48-5.53,5.53-5.53Z"></path><path class="cls-1" d="M211.33,311.58h0c3.05,0,5.53,2.48,5.53,5.53v39.47h-11.06v-39.47c0-3.05,2.48-5.53,5.53-5.53Z"></path><path class="cls-1" d="M187.94,311.58h0c3.05,0,5.53,2.48,5.53,5.53v39.47h-11.06v-39.47c0-3.05,2.48-5.53,5.53-5.53Z"></path><path class="cls-3" d="M207.98,196.77l-12.78-10.64-12.13,10.6c-6.45,5.64-10.27,14.67-10.27,24.27v36.53h45.92v-36.1c0-9.85-4.01-19.07-10.74-24.67Z"></path><circle class="cls-1" cx="195.04" cy="201.93" r="8.25"></circle><path class="cls-1" d="M184.29,212.54h0c3.05,0,5.53,2.48,5.53,5.53v39.47h-11.06v-39.47c0-3.05,2.48-5.53,5.53-5.53Z"></path><path class="cls-1" d="M208.14,212.54h0c3.05,0,5.53,2.48,5.53,5.53v39.47h-11.06v-39.47c0-3.05,2.48-5.53,5.53-5.53Z"></path><rect class="cls-3" x="15.97" y="12.37" width="9.88" height="245.17"></rect><rect class="cls-3" x="85.89" y="12.37" width="9.88" height="245.17"></rect><rect class="cls-3" x="156.01" y="12.37" width="9.88" height="245.17"></rect><rect class="cls-3" x="225.93" y="12.37" width="9.88" height="245.17"></rect><circle class="cls-3" cx="126.77" cy="217.01" r="25.04"></circle><line class="cls-4" y1="257.7" x2="252.74" y2="257.7"></line><line class="cls-4" y1="272.69" x2="252.74" y2="272.69"></line><polygon class="cls-2" points="7.91 12.37 100.51 12.37 93.16 0 14.91 0 7.91 12.37"></polygon><polygon class="cls-2" points="151.47 12.37 244.07 12.37 236.72 0 158.47 0 151.47 12.37"></polygon><line class="cls-4" x1="7.91" y1="12.37" x2="100.51" y2="12.37"></line><line class="cls-4" x1="151.47" y1="12.37" x2="244.07" y2="12.37"></line><line class="cls-4" x1="25.85" y1="25.68" x2="88.26" y2="25.68"></line><line class="cls-4" x1="55.19" y1="186.13" x2="55.19" y2="25.68"></line><line class="cls-4" x1="33.2" y1="255.57" x2="33.2" y2="25.68"></line><line class="cls-4" x1="78.88" y1="256.67" x2="78.88" y2="26.78"></line><line class="cls-4" x1="165.49" y1="25.68" x2="227.9" y2="25.68"></line><line class="cls-4" x1="194.83" y1="186.13" x2="194.83" y2="25.68"></line><line class="cls-4" x1="172.84" y1="255.57" x2="172.84" y2="25.68"></line><line class="cls-4" x1="218.52" y1="256.67" x2="218.52" y2="26.78"></line><path class="cls-4" d="M95.77,131.98c1.98-.44,60.24,0,60.24,0"></path><line class="cls-4" x1="95.77" y1="178.54" x2="158.18" y2="178.54"></line><line class="cls-4" x1="102" y1="131.54" x2="102" y2="178.27"></line><line class="cls-4" x1="110" y1="131.54" x2="110" y2="178.27"></line><line class="cls-4" x1="118.28" y1="131.82" x2="118.28" y2="178.54"></line><line class="cls-4" x1="126.27" y1="131.82" x2="126.27" y2="178.54"></line><line class="cls-4" x1="134.37" y1="131.82" x2="134.37" y2="178.54"></line><line class="cls-4" x1="142.37" y1="131.82" x2="142.37" y2="178.54"></line><line class="cls-4" x1="150.37" y1="131.82" x2="150.37" y2="178.54"></line><g><line class="cls-4" x1="18.16" y1="257.54" x2="18.16" y2="272.6"></line><line class="cls-4" x1="26.16" y1="257.54" x2="26.16" y2="272.6"></line><line class="cls-4" x1="34.44" y1="257.63" x2="34.44" y2="272.69"></line><line class="cls-4" x1="42.44" y1="257.63" x2="42.44" y2="272.69"></line><line class="cls-4" x1="50.54" y1="257.63" x2="50.54" y2="272.69"></line><line class="cls-4" x1="58.54" y1="257.63" x2="58.54" y2="272.69"></line><line class="cls-4" x1="66.54" y1="257.63" x2="66.54" y2="272.69"></line><line class="cls-4" x1="74.25" y1="257.54" x2="74.25" y2="272.6"></line><line class="cls-4" x1="82.25" y1="257.54" x2="82.25" y2="272.6"></line><line class="cls-4" x1="90.53" y1="257.63" x2="90.53" y2="272.69"></line><line class="cls-4" x1="98.53" y1="257.63" x2="98.53" y2="272.69"></line><line class="cls-4" x1="106.63" y1="257.63" x2="106.63" y2="272.69"></line><line class="cls-4" x1="114.63" y1="257.63" x2="114.63" y2="272.69"></line><line class="cls-4" x1="122.63" y1="257.63" x2="122.63" y2="272.69"></line></g><g><line class="cls-4" x1="130.11" y1="257.54" x2="130.11" y2="272.6"></line><line class="cls-4" x1="138.11" y1="257.54" x2="138.11" y2="272.6"></line><line class="cls-4" x1="146.39" y1="257.63" x2="146.39" y2="272.69"></line><line class="cls-4" x1="154.39" y1="257.63" x2="154.39" y2="272.69"></line><line class="cls-4" x1="162.49" y1="257.63" x2="162.49" y2="272.69"></line><line class="cls-4" x1="170.48" y1="257.63" x2="170.48" y2="272.69"></line><line class="cls-4" x1="178.48" y1="257.63" x2="178.48" y2="272.69"></line><line class="cls-4" x1="186.2" y1="257.54" x2="186.2" y2="272.6"></line><line class="cls-4" x1="194.2" y1="257.54" x2="194.2" y2="272.6"></line><line class="cls-4" x1="202.48" y1="257.63" x2="202.48" y2="272.69"></line><line class="cls-4" x1="210.48" y1="257.63" x2="210.48" y2="272.69"></line><line class="cls-4" x1="218.58" y1="257.63" x2="218.58" y2="272.69"></line><line class="cls-4" x1="226.57" y1="257.63" x2="226.57" y2="272.69"></line><line class="cls-4" x1="234.57" y1="257.63" x2="234.57" y2="272.69"></line></g></g></g></svg>