<svg xmlns="http://www.w3.org/2000/svg" id="Calque_2" data-name="Calque 2" viewBox="0 0 445.68 192.43"><defs><style>      .cls-1 {        fill: #b58033;      }      .cls-1, .cls-2, .cls-3 {        stroke-width: 0px;      }      .cls-2 {        fill: #fce5a7;      }      .cls-4 {        fill: none;        stroke: #ce9300;        stroke-miterlimit: 10;        stroke-width: 2px;      }      .cls-3 {        fill: #ce9300;      }    </style></defs><g id="Calque_1-2" data-name="Calque 1"><g><ellipse class="cls-2" cx="49.61" cy="80.38" rx="26.9" ry="29.94"></ellipse><ellipse class="cls-2" cx="397.14" cy="80.38" rx="26.9" ry="29.94"></ellipse><path class="cls-2" d="M57.48,32.18C57.48,31.34,64.66,0,64.66,0l7.94,32.18"></path><path class="cls-2" d="M388.2,32.18c0-.84-7.18-32.18-7.18-32.18l-7.94,32.18"></path><rect class="cls-2" x="81.86" y="95.9" width="273.73" height="96.53"></rect><rect class="cls-1" x="87.12" y="64.35" width="268.47" height="36.91"></rect><rect class="cls-2" y="78.15" width="90.36" height="114.27"></rect><rect class="cls-1" x="55.22" y="29.44" width="18.9" height="8.62"></rect><path class="cls-1" d="M90.36,76.34c-.63-.77-10.39-41.01-10.39-41.01l23.24,20.5,5.1,15.45-17.95,6.87"></path><path class="cls-3" d="M48.98,53.88c12.53,0,22.82,10.66,23.95,24.27h17.43l-10.39-42.82h-44.03L0,78.15h25.03c1.14-13.61,11.43-24.27,23.95-24.27Z"></path><ellipse class="cls-3" cx="48.55" cy="82.81" rx="17.2" ry="19.14"></ellipse><path class="cls-3" d="M48.83,128.39h3.98c5.24,0,9.49,4.25,9.49,9.49v54.55h-22.96v-54.55c0-5.24,4.25-9.49,9.49-9.49Z"></path><rect class="cls-2" x="355.32" y="78.15" width="90.36" height="114.27" transform="translate(801 270.58) rotate(-180)"></rect><rect class="cls-1" x="371.57" y="29.44" width="18.9" height="8.62" transform="translate(762.04 67.51) rotate(-180)"></rect><path class="cls-1" d="M355.32,76.34c.63-.77,10.39-41.01,10.39-41.01l-23.24,20.5-5.1,15.45,17.95,6.87"></path><path class="cls-3" d="M396.7,53.88c-12.53,0-22.82,10.66-23.95,24.27h-17.43s10.39-42.82,10.39-42.82h44.03s35.94,42.82,35.94,42.82h-25.03c-1.14-13.61-11.43-24.27-23.95-24.27Z"></path><ellipse class="cls-3" cx="397.14" cy="82.81" rx="17.2" ry="19.14"></ellipse><path class="cls-3" d="M383.38,128.39h22.96v54.55c0,5.24-4.25,9.49-9.49,9.49h-3.98c-5.24,0-9.49-4.25-9.49-9.49v-54.55h0Z" transform="translate(789.72 320.82) rotate(-180)"></path><path class="cls-3" d="M128.52,133.16h6.44c8.47,0,15.34,6.88,15.34,15.34v39.94h-37.13v-39.94c0-8.47,6.88-15.34,15.34-15.34Z"></path><path class="cls-3" d="M188.33,133.16h6.44c8.47,0,15.34,6.88,15.34,15.34v39.94h-37.13v-39.94c0-8.47,6.88-15.34,15.34-15.34Z"></path><path class="cls-3" d="M247.49,133.16h6.44c8.47,0,15.34,6.88,15.34,15.34v39.94h-37.13v-39.94c0-8.47,6.88-15.34,15.34-15.34Z"></path><path class="cls-3" d="M308.66,133.16h6.44c8.47,0,15.34,6.88,15.34,15.34v39.94h-37.13v-39.94c0-8.47,6.88-15.34,15.34-15.34Z"></path><line class="cls-4" x1="0" y1="112.45" x2="445.68" y2="112.45"></line><line class="cls-4" x1="28.28" y1="112.45" x2="28.28" y2="192.43"></line><line class="cls-4" x1="72.6" y1="112.45" x2="72.6" y2="192.43"></line><line class="cls-4" x1="372.85" y1="112.45" x2="372.85" y2="192.43"></line><line class="cls-4" x1="417.18" y1="112.45" x2="417.18" y2="192.43"></line><line class="cls-4" x1="342.11" y1="112.45" x2="342.11" y2="192.43"></line><line class="cls-4" x1="281.05" y1="112.45" x2="281.05" y2="192.43"></line><line class="cls-4" x1="221.36" y1="112.45" x2="221.36" y2="192.43"></line><line class="cls-4" x1="161.78" y1="112.45" x2="161.78" y2="192.43"></line><line class="cls-4" x1="101.46" y1="112.45" x2="101.46" y2="192.43"></line></g></g></svg>