<svg xmlns="http://www.w3.org/2000/svg" id="Calque_2" data-name="Calque 2" viewBox="0 0 215.81 517.86"><defs><style>      .cls-1 {        fill: #fce5a7;        stroke-width: 0px;      }      .cls-2 {        fill: none;        stroke: #ce9300;        stroke-miterlimit: 10;        stroke-width: 2px;      }    </style></defs><g id="Calque_1-2" data-name="Calque 1"><g><g><path class="cls-1" d="M166.54,433.89l-32.54-106.56-19.97-243.11h-14.49l-20.42,243.11-33.82,109.11S1.91,515.93,0,517.21h39.93s13.2-49.94,62.96-53.96c53.87-4.36,73.86,52.96,73.86,52.96h38.92l-49.13-82.31ZM79.87,422.94s17.23-76.57,17.23-81.67h19.46l15.23,81.67h-51.91Z"></path><rect class="cls-1" x="70.24" y="318.03" width="73.96" height="20.07"></rect><rect class="cls-1" x="92.46" y="61.26" width="28.24" height="34.46" rx="10.55" ry="10.55"></rect><path class="cls-1" d="M100.95,62.53c1.71-7.19,5.63-62.53,5.63-62.53l4.47,61.8"></path><rect class="cls-1" x="35" y="424.96" width="144.45" height="33.93"></rect></g><g><polyline class="cls-2" points="48.86 424.96 83.85 405.08 60.79 386.47 92.46 368.82 71.57 351.69 97.1 341.27"></polyline><polyline class="cls-2" points="39.93 517.21 16.65 490.05 62.63 480.64 34.22 458.89"></polyline><path class="cls-2" d="M79.75,469.12l-51.72-.29,20.38,29.44s-46.47,18.23-47.23,17.76"></path><polyline class="cls-2" points="176.53 516.02 198.62 488.87 153.83 479.45 181.05 457.7"></polyline><path class="cls-2" d="M134.34,467.93l52.91.89-19.2,28.26s46.47,19.41,47.23,18.94"></path><polyline class="cls-2" points="76.56 338.1 95.06 352.92 67.86 368.57 87.17 390.04 54.7 406.13 79.87 422.94"></polyline><polyline class="cls-2" points="163.73 424.96 128.87 405.08 152.63 386.47 121.19 368.82 141.52 351.69 115.23 341.27"></polyline><polyline class="cls-2" points="136.38 338.1 117.32 352.92 146.53 368.57 125.46 390.04 157.72 406.13 131.79 422.94"></polyline><line class="cls-2" x1="106.58" y1="95.71" x2="106" y2="318.46"></line><path class="cls-2" d="M79.9,318.03l26.68-16.03-23.97-16.24,23.39-13.75-20.74-17.79,20.74-13.34-18.39-14.56,18.97-13.56-16.9-11.1,16.32-10.99-14.47-11.08,15.7-11.68-12.16-12.38,11.22-11.04-9.19-9.04,9.48-11.04-9.48-10.26s9.51-5.1,9.48-7.13-8.36-7.04-8.36-7.04l8.36-4.66"></path><path class="cls-2" d="M106,318.03l-24.64-17.32,24.64-14.95s-21.97-16.92-21.97-16.88,22.26-13.6,22.26-13.6l-19.76-16.1,19.76-12.35-17.6-13.44,17.31-12.36-13.54-12.02,14.12-10.71-13.02-11.04s13.18-9.71,13.02-10.71-11.51-10.71-11.51-10.71l11.22-10.37-10.27-9.37s10.71-11.83,10.02-11.94-8.41-7.13-8.41-7.13c0,0,10.29-7.71,9.03-7.04s-8.04-4.66-8.04-4.66"></path><path class="cls-2" d="M133.36,318.03l-26.68-16.03,23.97-16.24-23.39-13.75,20.74-17.79-20.74-13.34,18.39-14.56-18.97-13.56,16.9-11.1-16.32-10.99,14.47-11.08-15.7-11.68,12.16-12.38-11.22-11.04,9.19-9.04-9.48-11.04,9.48-10.26s-9.51-5.1-9.48-7.13,8.36-7.04,8.36-7.04l-8.36-4.66"></path><path class="cls-2" d="M107.26,318.03l24.64-17.32-24.64-14.95s21.97-16.92,21.97-16.88-22.26-13.6-22.26-13.6l19.76-16.1-19.76-12.35,17.6-13.44-17.31-12.36,13.54-12.02-14.12-10.71,13.02-11.04s-13.18-9.71-13.02-10.71,11.51-10.71,11.51-10.71l-11.22-10.37,10.27-9.37s-10.71-11.83-10.02-11.94,8.41-7.13,8.41-7.13c0,0-10.29-7.71-9.03-7.04s8.04-4.66,8.04-4.66"></path><line class="cls-2" x1="40.47" y1="424.96" x2="40.47" y2="458.89"></line><line class="cls-2" x1="46.44" y1="424.96" x2="46.44" y2="458.89"></line><line class="cls-2" x1="54.7" y1="424.96" x2="54.7" y2="458.89"></line><line class="cls-2" x1="60.67" y1="424.96" x2="60.67" y2="458.89"></line><line class="cls-2" x1="69.65" y1="424.96" x2="69.65" y2="458.89"></line><line class="cls-2" x1="75.62" y1="424.96" x2="75.62" y2="458.89"></line><line class="cls-2" x1="83.88" y1="424.96" x2="83.88" y2="458.89"></line><line class="cls-2" x1="89.85" y1="424.96" x2="89.85" y2="458.89"></line><line class="cls-2" x1="125.43" y1="424.96" x2="125.43" y2="458.89"></line><line class="cls-2" x1="131.4" y1="424.96" x2="131.4" y2="458.89"></line><line class="cls-2" x1="74.88" y1="319.22" x2="74.88" y2="336.94"></line><line class="cls-2" x1="81.36" y1="319.22" x2="81.36" y2="336.94"></line><line class="cls-2" x1="87.58" y1="319.22" x2="87.58" y2="336.94"></line><line class="cls-2" x1="94.06" y1="319.22" x2="94.06" y2="336.94"></line><line class="cls-2" x1="100.52" y1="319.22" x2="100.52" y2="336.94"></line><line class="cls-2" x1="106.99" y1="319.22" x2="106.99" y2="336.94"></line><line class="cls-2" x1="113.22" y1="319.22" x2="113.22" y2="336.94"></line><line class="cls-2" x1="119.69" y1="319.22" x2="119.69" y2="336.94"></line><line class="cls-2" x1="126.52" y1="319.22" x2="126.52" y2="336.94"></line><line class="cls-2" x1="132.99" y1="319.22" x2="132.99" y2="336.94"></line><line class="cls-2" x1="139.22" y1="319.22" x2="139.22" y2="336.94"></line><line class="cls-2" x1="139.66" y1="424.96" x2="139.66" y2="458.89"></line><line class="cls-2" x1="145.63" y1="424.96" x2="145.63" y2="458.89"></line><line class="cls-2" x1="104.49" y1="424.96" x2="104.49" y2="458.89"></line><line class="cls-2" x1="110.46" y1="424.96" x2="110.46" y2="458.89"></line><line class="cls-2" x1="154.61" y1="424.96" x2="154.61" y2="458.89"></line><line class="cls-2" x1="160.58" y1="424.96" x2="160.58" y2="458.89"></line><line class="cls-2" x1="168.84" y1="424.96" x2="168.84" y2="458.89"></line><line class="cls-2" x1="174.81" y1="424.96" x2="174.81" y2="458.89"></line><line class="cls-2" x1="94.06" y1="77.3" x2="119.2" y2="77.3"></line><line class="cls-2" x1="98.88" y1="68.78" x2="114.38" y2="68.78"></line><line class="cls-2" x1="98.88" y1="89.61" x2="114.38" y2="89.61"></line><line class="cls-2" x1="98.88" y1="83.22" x2="114.38" y2="83.22"></line><line class="cls-2" x1="106.63" y1="68.75" x2="106.63" y2="2.59"></line></g></g></g></svg>