<svg xmlns="http://www.w3.org/2000/svg" id="Calque_2" data-name="Calque 2" viewBox="0 0 565.95 134.69"><defs><style>      .cls-1 {        fill: #b58033;      }      .cls-1, .cls-2, .cls-3 {        stroke-width: 0px;      }      .cls-2 {        fill: #fce5a7;      }      .cls-4 {        fill: none;        stroke: #ce9300;        stroke-miterlimit: 10;        stroke-width: 2px;      }      .cls-3 {        fill: #ceaa45;      }    </style></defs><g id="Calque_1-2" data-name="Calque 1"><g><g><polyline class="cls-3" points="352.99 133.47 292.99 133.47 292.99 43.82 319.2 43.82 319.2 24.51 337.13 24.51 337.13 2.44 384.03 2.44 384.03 21.75 400.58 21.75 400.58 35.54 412.99 35.54 412.99 133.47 370.23 133.47"></polyline><path class="cls-3" d="M513.54,0v22.48s-35.86,29.5-88.28,25.29v85.7h140.69V0h-52.42Z"></path><polygon class="cls-2" points="292.99 131.04 292.99 35.27 319.2 35.27 319.2 19.02 337.13 19.02 337.13 0 384.03 0 384.03 19.31 400.58 19.31 400.58 35.27 412.99 35.27 412.99 131.04 370.23 131.04 370.23 65.52 352.99 65.52 352.99 131.04 292.99 131.04"></polygon><path class="cls-2" d="M513.54,0v22.07s-35.86,28.97-88.28,24.83v84.14h140.69V0h-52.42ZM469.26,131.04h-14.57V61.99h14.57v69.04ZM491.49,131.04h-14.57V51.25h14.57v79.79ZM513.35,131.04h-14.57V38.87h14.57v92.17ZM535.21,131.04h-14.57V13.79h14.57v117.24ZM557.06,131.04h-14.57V13.79h14.57v117.24Z"></path><line class="cls-4" x1="384.11" y1="18.71" x2="337.12" y2="18.71"></line><line class="cls-4" x1="454.69" y1="96.05" x2="425.26" y2="96.05"></line><g><line class="cls-4" x1="454.69" y1="67.08" x2="425.26" y2="67.08"></line><line class="cls-4" x1="454.69" y1="74.15" x2="425.26" y2="74.15"></line><line class="cls-4" x1="454.69" y1="81.06" x2="425.26" y2="81.06"></line><line class="cls-4" x1="454.69" y1="88.37" x2="425.26" y2="88.37"></line><line class="cls-4" x1="454.69" y1="102.24" x2="425.26" y2="102.24"></line><line class="cls-4" x1="454.69" y1="109.15" x2="425.26" y2="109.15"></line><line class="cls-4" x1="454.69" y1="116.46" x2="425.26" y2="116.46"></line><line class="cls-4" x1="454.69" y1="123.54" x2="425.26" y2="123.54"></line></g><g><line class="cls-4" x1="353.75" y1="95.12" x2="292.99" y2="95.12"></line><line class="cls-4" x1="353.75" y1="67.08" x2="292.99" y2="67.08"></line><line class="cls-4" x1="353.75" y1="74.15" x2="292.99" y2="74.15"></line><line class="cls-4" x1="353.75" y1="81.06" x2="292.99" y2="81.06"></line><line class="cls-4" x1="353.75" y1="88.37" x2="292.99" y2="88.37"></line><line class="cls-4" x1="353.75" y1="102.24" x2="292.99" y2="102.24"></line><line class="cls-4" x1="353.75" y1="109.15" x2="292.99" y2="109.15"></line><line class="cls-4" x1="353.75" y1="116.46" x2="292.99" y2="116.46"></line><line class="cls-4" x1="353.75" y1="123.54" x2="292.99" y2="123.54"></line></g><line class="cls-4" x1="400.58" y1="34.46" x2="319.28" y2="34.46"></line><rect class="cls-1" x="356.03" y="67.95" width="11.64" height="63.08"></rect><rect class="cls-1" x="456.16" y="63.12" width="11.64" height="67.92"></rect><rect class="cls-1" x="478.39" y="52.45" width="11.64" height="78.59"></rect><rect class="cls-1" x="500.25" y="41.14" width="11.64" height="89.9"></rect><rect class="cls-1" x="522.11" y="15.6" width="11.64" height="115.43"></rect><rect class="cls-1" x="543.96" y="15.6" width="11.64" height="115.43"></rect></g><g><polyline class="cls-3" points="212.96 134.69 272.96 134.69 272.96 45.03 246.76 45.03 246.76 25.72 228.82 25.72 228.82 3.65 181.93 3.65 181.93 22.96 165.37 22.96 165.37 36.76 152.96 36.76 152.96 134.69 195.72 134.69"></polyline><path class="cls-3" d="M0,1.22v133.47s140.69,0,140.69,0V48.99c-52.42,4.21-88.28-25.29-88.28-25.29V1.22S0,1.22,0,1.22Z"></path><polygon class="cls-2" points="272.96 132.26 272.96 36.49 246.76 36.49 246.76 20.23 228.82 20.23 228.82 1.22 181.93 1.22 181.93 20.53 165.37 20.53 165.37 36.48 152.96 36.48 152.96 132.26 195.72 132.26 195.72 66.74 212.96 66.74 212.96 132.26 272.96 132.26"></polygon><path class="cls-2" d="M0,1.22v131.04s140.69,0,140.69,0V48.12c-52.42,4.14-88.28-24.83-88.28-24.83V1.22S0,1.22,0,1.22ZM96.7,63.21h14.57v69.04h-14.57V63.21ZM74.46,52.46h14.57v79.79h-14.57V52.46ZM52.6,40.09h14.57v92.17h-14.57V40.09ZM30.74,15.01h14.57v117.24h-14.57V15.01ZM8.89,15.01h14.57v117.24h-14.57V15.01Z"></path><line class="cls-4" x1="181.84" y1="19.93" x2="228.84" y2="19.93"></line><line class="cls-4" x1="111.26" y1="97.27" x2="140.69" y2="97.27"></line><g><line class="cls-4" x1="111.26" y1="68.29" x2="140.69" y2="68.29"></line><line class="cls-4" x1="111.26" y1="75.37" x2="140.69" y2="75.37"></line><line class="cls-4" x1="111.26" y1="82.28" x2="140.69" y2="82.28"></line><line class="cls-4" x1="111.26" y1="89.59" x2="140.69" y2="89.59"></line><line class="cls-4" x1="111.26" y1="103.46" x2="140.69" y2="103.46"></line><line class="cls-4" x1="111.26" y1="110.37" x2="140.69" y2="110.37"></line><line class="cls-4" x1="111.26" y1="117.68" x2="140.69" y2="117.68"></line><line class="cls-4" x1="111.26" y1="124.75" x2="140.69" y2="124.75"></line></g><g><line class="cls-4" x1="212.2" y1="96.34" x2="272.96" y2="96.34"></line><line class="cls-4" x1="212.2" y1="68.29" x2="272.96" y2="68.29"></line><line class="cls-4" x1="212.2" y1="75.37" x2="272.96" y2="75.37"></line><line class="cls-4" x1="212.2" y1="82.28" x2="272.96" y2="82.28"></line><line class="cls-4" x1="212.2" y1="89.59" x2="272.96" y2="89.59"></line><line class="cls-4" x1="212.2" y1="103.46" x2="272.96" y2="103.46"></line><line class="cls-4" x1="212.2" y1="110.37" x2="272.96" y2="110.37"></line><line class="cls-4" x1="212.2" y1="117.68" x2="272.96" y2="117.68"></line><line class="cls-4" x1="212.2" y1="124.75" x2="272.96" y2="124.75"></line></g><line class="cls-4" x1="165.37" y1="35.68" x2="246.67" y2="35.68"></line><rect class="cls-1" x="198.29" y="69.17" width="11.64" height="63.08" transform="translate(408.21 201.43) rotate(-180)"></rect><rect class="cls-1" x="98.16" y="64.34" width="11.64" height="67.92" transform="translate(207.96 196.59) rotate(-180)"></rect><rect class="cls-1" x="75.93" y="53.67" width="11.64" height="78.59" transform="translate(163.49 185.92) rotate(-180)"></rect><rect class="cls-1" x="54.07" y="42.36" width="11.64" height="89.9" transform="translate(119.77 174.61) rotate(-180)"></rect><rect class="cls-1" x="32.21" y="16.82" width="11.64" height="115.43" transform="translate(76.06 149.08) rotate(-180)"></rect><rect class="cls-1" x="10.36" y="16.82" width="11.64" height="115.43" transform="translate(32.35 149.08) rotate(-180)"></rect></g></g></g></svg>